<?xml version="1.0" encoding="utf-8"?>
<!-- Generator: Adobe Illustrator 16.0.4, SVG Export Plug-In . SVG Version: 6.00 Build 0)  -->
<!DOCTYPE svg PUBLIC "-//W3C//DTD SVG 1.1//EN" "http://www.w3.org/Graphics/SVG/1.1/DTD/svg11.dtd">
<svg version="1.1" id="Layer_1" xmlns="http://www.w3.org/2000/svg" xmlns:xlink="http://www.w3.org/1999/xlink" x="0px" y="0px"
	 width="170px" height="110px" viewBox="0 0 170 110" enable-background="new 0 0 170 110" xml:space="preserve">
<g>
	<path fill-rule="evenodd" clip-rule="evenodd" fill="#FFFFFF" d="M157.348,67.356c0,1.326-1.074,2.4-2.4,2.4h-11.296
		c-1.326,0-2.4-1.074-2.4-2.4v-2.373c0-1.326,1.074-2.4,2.4-2.4h11.296c1.326,0,2.4,1.074,2.4,2.4V67.356z"/>
	<g>
		<path fill="#FFFFFF" d="M139.559,66.052c-2.523,0-5.911-0.508-7.726-2.926c-1.563-2.085-2.064-4.97-1.308-7.53
			c0.705-2.383,2.362-4.161,4.666-5.008l0.072-0.026l0.074-0.019c4.3-1.102,15.367-5.404,14.941-12.001
			c-0.6-9.292-22.124-18.697-62.103-18.697c-35.71,0-59.357,7.535-66.217,14.535c-1.41,1.438-2.111,2.83-2.084,4.135
			c0.1,4.789,5.932,5.219,6.181,5.234l0.62,0.04l0.41,0.467c0.175,0.199,4.26,4.927,2.34,9.727
			c-0.944,2.359-2.506,5.067-6.226,5.067c-0.767,0-1.639-0.111-2.667-0.339c-2.274-0.505-9.618-3.34-13.393-9.535
			c-2.265-3.717-2.808-7.893-1.615-12.412c4.145-15.709,34.27-24.719,82.65-24.719c42.178,0,72.906,10.476,76.462,26.067
			c1.736,7.613-1.629,14.847-9.734,20.921c-5.921,4.437-12.233,6.684-12.499,6.777l-0.128,0.045l-0.134,0.021
			C142.099,65.882,141.015,66.052,139.559,66.052z"/>
		<path fill="#FFFFFF" d="M88.176,13.544c40.2,0,71.566,9.847,75,24.9c3.9,17.1-21.268,25.949-21.268,25.949
			s-0.995,0.158-2.349,0.158c-2.101,0-5.066-0.381-6.526-2.326c-2.4-3.201-1.675-8.631,2.676-10.23c0,0,16.667-4.25,16.066-13.551
			c-0.734-11.379-25.799-20.101-63.6-20.101c-41.6,0-70,10.401-69.801,20.2c0.129,6.223,7.584,6.701,7.584,6.701
			s3.674,4.18,2.074,8.18c-1.215,3.034-2.644,4.124-4.833,4.124c-0.697,0-1.472-0.11-2.341-0.304
			c-3.601-0.799-17.375-6.871-13.884-20.1C10.775,22.744,39.976,13.544,88.176,13.544 M88.176,10.544
			c-49.115,0-79.769,9.417-84.101,25.836c-1.301,4.928-0.7,9.496,1.785,13.574c4.066,6.674,11.737,9.64,14.35,10.219
			c1.134,0.252,2.113,0.375,2.991,0.375c4.672,0,6.585-3.429,7.618-6.009c1.803-4.509-0.79-9.209-2.606-11.275l-0.821-0.934
			l-1.24-0.08c-0.465-0.036-4.708-0.459-4.777-3.77c-0.022-1.104,0.888-2.27,1.656-3.053c3.535-3.607,11.658-7.126,22.287-9.655
			c12.184-2.898,27.004-4.43,42.859-4.43c17.947,0,33.429,1.949,44.772,5.636c9.79,3.182,15.561,7.431,15.833,11.658
			c0.208,3.223-3.283,5.822-6.248,7.434c-3.72,2.023-7.528,3.007-7.566,3.017l-0.149,0.038l-0.145,0.053
			c-2.72,1-4.756,3.184-5.586,5.991c-0.889,3.005-0.297,6.398,1.545,8.855c1.731,2.307,4.818,3.526,8.926,3.526
			c1.547,0,2.695-0.175,2.821-0.195l0.268-0.043l0.256-0.09c0.275-0.097,6.797-2.418,12.9-6.992
			c8.615-6.456,12.175-14.22,10.297-22.455c-1.916-8.399-10.805-15.412-25.706-20.28C126.47,12.948,108.413,10.544,88.176,10.544
			L88.176,10.544z"/>
	</g>
	<g>
		<path fill="#FFFFFF" d="M88.828,107.143c-29.731,0-53.92-23.392-53.92-52.144c0-28.751,24.188-52.142,53.92-52.142
			c29.734,0,53.925,23.391,53.925,52.142C142.753,83.749,118.562,107.141,88.828,107.143L88.828,107.143z"/>
		<path fill="#FFFFFF" d="M88.828,4.058c29.117,0,52.725,22.807,52.725,50.941c0,28.133-23.607,50.941-52.725,50.943
			c-29.115,0-52.72-22.809-52.72-50.943S59.713,4.058,88.828,4.058 M88.828,1.658c-30.393,0-55.12,23.929-55.12,53.341
			c0,29.414,24.727,53.343,55.12,53.343c30.396-0.002,55.125-23.932,55.125-53.343C143.953,25.586,119.224,1.658,88.828,1.658
			L88.828,1.658z"/>
	</g>
	<ellipse fill="none" cx="88.831" cy="54.999" rx="52.722" ry="50.943"/>
	<g>
		<path fill="#FFFFFF" d="M15.133,63.51c-1.077,0-2.042-0.511-2.58-1.368c-0.545-0.867-0.584-1.98-0.104-2.977
			c0.041-0.085,1.487-2.961,1.487-2.961c0.082-0.164,0.117-0.264,0.132-0.32c-0.045-0.046-0.139-0.127-0.319-0.233
			c-2.394-1.407-3.756-5.354-1.725-10.174c1.307-3.103,3.608-5.031,6.005-5.031c1.14,0,2.218,0.434,3.117,1.255
			c0.119-0.192,0.281-0.532,0.495-1.125l0.099-0.267l0.272-0.689c0.302-0.762,0.563-1.419,0.886-2.295
			c0.434-1.177,1.445-1.909,2.637-1.909c1.346,0,2.578,0.932,3.065,2.319l5.588,16.189c0.282,0.803,0.234,1.676-0.138,2.452
			c-0.372,0.776-1.024,1.36-1.836,1.645L16.398,63.29C15.99,63.433,15.556,63.51,15.133,63.51z"/>
		<path fill="#FFFFFF" d="M25.535,36.917c0.653,0,1.354,0.474,1.65,1.316l5.585,16.182c0.314,0.895-0.156,1.877-1.053,2.191
			l-15.793,5.26c-0.281,0.099-0.546,0.144-0.791,0.144c-1.191,0-1.874-1.069-1.333-2.194c0.084-0.176,1.123-2.229,1.479-2.943
			c0.427-0.854,0.574-1.723-0.77-2.514c-1.848-1.086-2.775-4.33-1.104-8.299c1.114-2.645,2.919-4.114,4.623-4.114
			c0.744,0,1.467,0.28,2.106,0.864c0.414,0.378,0.777,0.531,1.095,0.531c1.135,0,1.693-1.942,1.905-2.482
			c0.434-1.1,0.75-1.875,1.17-3.014C24.539,37.209,25.022,36.917,25.535,36.917 M25.535,33.917L25.535,33.917
			c-1.81,0-3.397,1.134-4.045,2.89c-0.318,0.863-0.576,1.511-0.873,2.261l-0.158,0.399c-0.764-0.345-1.583-0.521-2.43-0.521
			c-3.011,0-5.842,2.28-7.387,5.95c-1.656,3.931-1.582,8.935,1.53,11.48c-0.135,0.269-0.281,0.559-0.42,0.835
			c-0.326,0.646-0.614,1.22-0.658,1.311c-0.701,1.457-0.632,3.112,0.189,4.418c0.814,1.296,2.254,2.07,3.85,2.07
			c0.593,0,1.193-0.105,1.785-0.313l15.746-5.244c1.235-0.433,2.191-1.289,2.737-2.426c0.545-1.137,0.616-2.417,0.198-3.606
			l-5.579-16.166C29.317,35.252,27.517,33.917,25.535,33.917L25.535,33.917z"/>
	</g>
	<g>
		<g>
			<path fill="#FFFFFF" d="M91.138,70.474c-5.626,0-9.532-2.066-11.939-6.315c-1.717-3.029-2.998-9.727-0.823-13.912
				c1.16-2.232,3.109-3.542,5.637-3.789c0.265-0.026,0.519-0.038,0.76-0.038c4.938,0,5.448,4.769,5.665,6.805
				c0.061,0.571,0.119,1.11,0.209,1.486c0.344,1.43,0.85,1.43,1.257,1.43l0.107-0.002c0.531-0.023,0.816-0.138,0.906-0.238
				c0.135-0.149,0.275-0.634,0.225-1.508c-0.023-0.396-0.054-0.792-0.084-1.183c-0.228-2.923-0.609-7.816,4.654-9.088
				c0.513-0.125,1.029-0.188,1.533-0.188c1.846,0,3.526,0.824,4.856,2.382c2.545,2.979,3.363,8.096,2.84,11.397
				c-1.121,7.028-6.285,11.984-13.156,12.628C92.86,70.429,91.969,70.474,91.138,70.474z"/>
			<path fill="#FFFFFF" d="M99.244,46.314c4.227,0,5.957,7.167,5.346,11.027c-0.835,5.236-4.576,10.025-11.027,10.631
				c-0.853,0.081-1.661,0.122-2.424,0.122c-4.802,0-7.89-1.615-9.869-5.108c-1.893-3.34-3.486-13.529,2.974-14.158
				c0.186-0.018,0.362-0.027,0.529-0.027c3.618,0,3.001,4.143,3.56,6.467c0.463,1.925,1.534,3.254,3.571,3.254
				c0.069,0,0.139-0.001,0.21-0.004c2.899-0.125,3.529-2.102,3.404-4.262c-0.195-3.418-0.988-6.916,2.753-7.82
				C98.608,46.353,98.933,46.314,99.244,46.314 M99.244,41.554c-0.692,0-1.396,0.085-2.093,0.254
				c-3.665,0.886-5.335,3.093-6.061,5.438c-1.402-2.051-3.65-3.206-6.316-3.206c-0.325,0-0.66,0.017-0.997,0.05
				c-3.316,0.323-5.986,2.12-7.514,5.06c-2.71,5.216-1.086,12.74,0.865,16.183c2.828,4.99,7.542,7.521,14.01,7.521
				c0.905,0,1.872-0.048,2.873-0.143c7.984-0.75,13.983-6.488,15.28-14.621c0.622-3.928-0.34-9.761-3.38-13.32
				C104.139,42.696,101.771,41.554,99.244,41.554L99.244,41.554z"/>
		</g>
		<g>
			<path fill="#FFFFFF" d="M113.057,68.058c-1.489,0-2.896-0.622-4.069-1.797c-2.226-2.232-3.601-6.593-3.588-11.379
				c0.02-9.444,3.33-15.814,9.082-17.476c0.586-0.17,1.214-0.256,1.866-0.256c2.726,0,5.695,1.607,6.231,5.192
				c1.231-2.328,3.3-3.651,5.754-3.651c0.688,0,1.41,0.104,2.144,0.31c3.882,1.094,6.982,5.431,7.374,10.314
				c0.405,5.011-0.013,8.398-1.316,10.66c-1.747,3.011-4.189,3.641-5.932,3.641c-0.266,0-0.538-0.015-0.817-0.045
				c-2.93-0.321-4.387-3.192-4.745-5.552c-0.03-0.198-0.067-0.363-0.104-0.496c-0.067,0.063-0.134,0.133-0.199,0.21
				c-1.539,1.844-3.074,2.231-4.091,2.231c-0.232,0-0.467-0.02-0.703-0.061c-0.802-0.138-1.458-0.494-1.985-0.915
				c0.578,1.767,1.163,4.115,0.119,6.156c-0.452,0.883-1.408,2.063-3.393,2.667C114.144,67.976,113.597,68.058,113.057,68.058z"/>
			<path fill="#FFFFFF" d="M116.348,39.53c1.642,0,3.562,0.843,3.887,3.229c0.254,1.912,0.719,3.297,1.854,3.461
				c0.045,0.006,0.091,0.009,0.136,0.009c0.827,0,1.662-1.027,2.266-2.376c0.727-1.631,1.975-2.782,3.843-2.782
				c0.462,0,0.962,0.07,1.502,0.222c2.897,0.816,5.329,4.295,5.644,8.213c0.316,3.916,0.163,7.252-1.006,9.281
				c-0.912,1.572-2.188,2.449-3.869,2.449c-0.182,0-0.369-0.01-0.561-0.031c-1.603-0.176-2.435-2.133-2.648-3.543
				c-0.238-1.555-0.864-2.533-1.861-2.809c-0.093-0.025-0.191-0.038-0.293-0.038c-0.743,0-1.702,0.638-2.332,1.395
				c-0.644,0.771-1.426,1.373-2.261,1.373c-0.098,0-0.196-0.008-0.295-0.025c-1.011-0.174-1.658-1.232-2.002-1.744
				c-0.504-0.751-1.16-1.217-1.804-1.217c-0.25,0-0.499,0.07-0.735,0.221c-1.068,0.674-0.766,2.996-0.385,4.107
				c0.775,2.268,1.97,5.574-1.434,6.609c-0.321,0.097-0.633,0.144-0.935,0.144c-3.187,0-5.292-5.182-5.277-10.791
				c0.013-6.186,1.717-13.564,7.362-15.195C115.502,39.588,115.916,39.53,116.348,39.53 M116.348,34.77L116.348,34.77
				c-0.876,0-1.728,0.118-2.53,0.351c-6.839,1.976-10.776,9.177-10.798,19.758c-0.015,5.475,1.586,10.359,4.283,13.063
				c1.629,1.634,3.619,2.497,5.754,2.497c0.774,0,1.553-0.117,2.316-0.349c2.789-0.848,4.162-2.568,4.823-3.862
				c0.665-1.299,0.872-2.633,0.836-3.896c0.769-0.045,1.684-0.235,2.656-0.72c1.217,2.439,3.312,4.047,5.835,4.324
				c0.365,0.04,0.727,0.06,1.08,0.06c3.347,0,6.183-1.712,7.987-4.821c1.583-2.749,2.085-6.462,1.633-12.053
				c-0.476-5.932-4.217-11.037-9.098-12.412c-0.95-0.266-1.887-0.4-2.793-0.4c-1.926,0-3.672,0.579-5.124,1.657
				C121.637,35.979,119.18,34.77,116.348,34.77L116.348,34.77z"/>
		</g>
		<g>
			<path fill="#FFFFFF" d="M49.315,64.854c-0.152,0-0.306-0.005-0.46-0.016c-3.659-0.242-7.191-3.562-9.212-8.664
				c-0.882-2.225-3.226-8.137-1.949-15.606c0.546-3.198,3.354-9.929,10.072-12.505c2.009-0.771,3.923-1.162,5.688-1.162
				c3.171,0,5.925,1.23,8.187,3.658c1.969,2.112,2.848,5.101,2.411,8.199c-0.527,3.732-2.823,7.069-6.301,9.155
				c-3.255,1.95-5.03,2.728-6.09,3.191c-0.099,0.043-0.202,0.089-0.299,0.132c1.677,1.981,4.836,5.859,3.649,9.618
				C54.258,63.247,51.968,64.854,49.315,64.854C49.315,64.854,49.316,64.854,49.315,64.854z"/>
			<path fill="#FFFFFF" d="M53.455,29.282c2.877,0,4.921,1.265,6.446,2.901c3.348,3.592,2.232,10.328-3.373,13.689
				c-6.274,3.76-6.771,2.957-7.522,4.314c-0.357,0.652-0.304,1.592,0.396,2.416c1.813,2.139,4.105,5.117,3.342,7.535
				c-0.451,1.43-1.816,2.336-3.427,2.336c-0.098,0-0.198-0.003-0.298-0.01c-2.77-0.184-5.539-3.07-7.162-7.166
				c-0.939-2.369-2.961-7.631-1.815-14.328c0.469-2.746,2.979-8.537,8.578-10.684C50.453,29.582,52.053,29.282,53.455,29.282
				 M48.365,42.582c0.913,0,2.204-0.781,3.483-1.722c1.621-1.191,3.113-2.199,2.479-3.475c-0.211-0.426-0.697-0.637-1.342-0.637
				c-0.975,0-2.312,0.48-3.613,1.422c-2.089,1.51-2.511,3.529-1.723,4.178C47.845,42.51,48.087,42.582,48.365,42.582 M53.455,24.521
				c-2.058,0-4.259,0.444-6.542,1.32c-7.718,2.959-10.94,10.666-11.565,14.327c-1.39,8.126,1.133,14.488,2.083,16.884
				c2.399,6.053,6.613,9.852,11.272,10.161c0.199,0.014,0.407,0.021,0.613,0.021c3.697,0,6.898-2.276,7.967-5.665
				c1.136-3.596-0.479-6.972-2.201-9.441c1.006-0.512,2.275-1.204,3.893-2.173c4.098-2.458,6.807-6.417,7.435-10.864
				c0.538-3.812-0.565-7.514-3.026-10.154C60.653,26.007,57.312,24.521,53.455,24.521L53.455,24.521z"/>
		</g>
		<g>
			<path fill="#FFFFFF" d="M71.702,70.446c-5.118,0-11.637-2.831-14.194-8.24c-2.192-4.625-2.092-10.417,0.274-15.89
				c0.721-1.666,2.914-6.732,7.059-6.732c0.694,0,1.399,0.147,2.095,0.437c1.103,0.461,1.979,1.388,2.47,2.611
				c0.755,1.881,0.592,4.328-0.448,6.714c-1.014,2.331-1.296,4.591-0.718,5.758c0.41,0.821,0.83,1.031,3.2,1.05
				c4.081,0.032,7.207,1.939,8.361,5.101c0.79,2.167,0.58,4.283-0.59,5.961c-1.423,2.041-4.143,3.218-7.464,3.23H71.702z"/>
			<path fill="#FFFFFF" d="M64.841,41.964c0.411,0,0.806,0.098,1.18,0.253c1.514,0.633,2.021,3.273,0.755,6.178
				c-0.97,2.229-1.799,5.484-0.668,7.766c1.136,2.277,3.129,2.355,5.313,2.373c2.221,0.018,5.135,0.771,6.145,3.537
				c1.318,3.617-1.48,5.979-5.827,5.994c-0.012,0-0.025,0-0.037,0c-4.021,0-9.838-2.213-12.042-6.877
				c-1.934-4.08-1.711-9.262,0.307-13.928C61.739,43.166,63.397,41.964,64.841,41.964 M64.841,37.204L64.841,37.204
				c-5.709,0-8.369,6.146-9.243,8.166c-2.639,6.103-2.726,12.611-0.24,17.857c3.116,6.594,10.657,9.599,16.344,9.599h0.009h0.046
				c4.106-0.015,7.535-1.563,9.407-4.249c1.626-2.333,1.937-5.222,0.875-8.136c-1.51-4.135-5.464-6.626-10.58-6.667
				c-0.26-0.002-0.752-0.006-1.133-0.033c-0.037-0.622,0.139-1.893,0.815-3.446c1.292-2.965,1.465-6.082,0.473-8.55
				c-0.731-1.82-2.065-3.211-3.757-3.919C66.864,37.412,65.852,37.204,64.841,37.204L64.841,37.204z"/>
		</g>
		<g>
			<path fill="#FFFFFF" d="M60.337,92.62c-3.928,0-4.497-4.223-4.684-5.611l-0.039-0.28c-0.113-0.785-0.242-1.192-0.333-1.396
				c-0.206,0.107-0.573,0.344-1.118,0.859c-0.147,0.139-0.392,0.449-0.607,0.722c-0.875,1.111-2.196,2.789-4.336,2.789
				c-0.494,0-0.986-0.095-1.462-0.283c-4.06-1.601-3.486-6.494-2.55-11.369c0.675-3.496,3.1-7.781,6.997-9.479
				c1.241-0.542,2.568-0.828,3.837-0.828c1.843,0,6.333,0.672,8.229,6.895c1.387,4.544,1.978,12.684-0.521,16.145
				c-0.832,1.151-2.004,1.803-3.302,1.834L60.337,92.62z"/>
			<path fill="#FFFFFF" d="M56.042,70.125c2.387,0,4.782,1.368,5.952,5.208c1.631,5.344,1.656,14.828-1.604,14.906
				c-0.018,0-0.036,0-0.054,0c-1.997,0-2.184-2.592-2.367-3.852c-0.217-1.51-0.673-3.34-2.368-3.508
				c-0.058-0.005-0.116-0.008-0.175-0.008c-0.904,0-1.905,0.653-2.897,1.59c-0.931,0.875-1.914,2.861-3.309,2.861
				c-0.189,0-0.386-0.037-0.591-0.117c-1.878-0.74-2.175-3.023-1.084-8.705c0.545-2.822,2.522-6.4,5.61-7.746
				C54.058,70.361,55.049,70.125,56.042,70.125 M54.684,77.182c0.289,0,0.603-0.019,0.898-0.019c0.143,0,0.282,0.004,0.413,0.018
				c0.638,0.062,1.352,0.479,1.903,0.479c0.339,0,0.617-0.158,0.777-0.653c0.35-1.072-0.859-2.047-2.205-2.092
				c-0.053-0.002-0.104-0.002-0.156-0.002c-1.647,0-2.705,0.894-2.725,1.663C53.577,77.098,54.075,77.182,54.684,77.182
				 M56.042,65.364c-1.594,0-3.25,0.355-4.79,1.027c-5.01,2.184-7.646,7.402-8.381,11.207c-0.777,4.049-2.223,11.578,4.013,14.036
				c0.758,0.298,1.543,0.449,2.336,0.449c2.086,0,3.61-0.963,4.706-1.998C55.385,94.293,58.447,95,60.337,95l0.163-0.002
				c2.065-0.05,3.903-1.051,5.181-2.821c3.416-4.731,2.059-14.328,0.867-18.234C64.911,68.572,60.984,65.364,56.042,65.364
				L56.042,65.364z"/>
		</g>
		<g>
			<path fill="#FFFFFF" d="M68.927,94.42c-0.217,0-0.446-0.013-0.687-0.042c-1.156-0.138-2.242-0.84-3.059-1.978
				c-1.04-1.449-2.569-4.91-1.121-11.812c1.79-8.549,5.734-10.583,8.727-10.785c0.187-0.013,0.369-0.019,0.544-0.019
				c1.606,0,5.115,0.569,5.936,5.386c0.491-0.256,1.037-0.395,1.619-0.395l0.247,0.008c0.903,0.059,1.747,0.493,2.363,1.222
				c1.453,1.717,1.466,4.934,1.221,7.33c-0.647,6.428-3.079,10.246-6.673,10.47c-0.178,0.011-0.35,0.017-0.516,0.017
				c-2.149,0-3.537-0.861-4.444-1.904C72.253,93.498,70.75,94.42,68.927,94.42z"/>
			<path fill="#FFFFFF" d="M73.332,72.166c3.927,0,3.699,4.368,3.733,5.263c0.044,1.047,0.183,3.762,1.14,3.781
				c0.005,0,0.011,0,0.016,0c0.679,0,0.989-1.004,1.065-1.836c0.113-1.192,0.73-2.218,1.601-2.218c0.026,0,0.053,0.001,0.08,0.003
				c1.531,0.1,1.618,3.641,1.384,5.936c-0.231,2.299-1.196,8.133-4.453,8.336c-0.126,0.008-0.25,0.012-0.368,0.012
				c-2.563,0-3.302-1.789-3.785-3.436c-0.295-1.018-0.598-1.596-1.038-1.596c-0.069,0-0.142,0.014-0.218,0.043
				c-0.783,0.305-0.963,2.883-1.301,3.865c-0.267,0.79-0.883,1.72-2.26,1.72c-0.128,0-0.262-0.008-0.404-0.025
				c-1.586-0.189-3.669-3.617-2.133-10.938c0.592-2.826,2.229-8.607,6.557-8.898C73.08,72.17,73.208,72.166,73.332,72.166
				 M73.333,67.405c-0.228,0-0.463,0.008-0.707,0.024c-3.121,0.21-8.688,2.135-10.895,12.672
				c-1.212,5.774-0.673,10.635,1.517,13.687c1.21,1.686,2.883,2.735,4.711,2.953c0.324,0.039,0.65,0.059,0.968,0.059
				c1.718,0,3.271-0.567,4.496-1.581c1.371,0.751,2.827,0.983,4.106,0.983c0.214,0,0.435-0.006,0.664-0.021
				c4.876-0.304,8.118-4.901,8.894-12.61c0.423-4.146-0.172-7.211-1.772-9.103c-1.038-1.227-2.472-1.958-4.039-2.061
				c-0.096-0.007-0.208-0.011-0.322-0.012C79.018,67.698,74.435,67.405,73.333,67.405L73.333,67.405z"/>
		</g>
		<g>
			<path fill="#FFFFFF" d="M88.857,95.688c-4.307,0-6.158-2.736-6.434-5.078c-0.165-1.417,0.129-2.354,0.389-3.179
				c0.14-0.445,0.285-0.905,0.404-1.568c0.381-2.109,0.111-5.116-0.358-6.693c-0.512-1.713-1.457-4.874,1.475-7.368
				c1.431-1.222,3.708-1.953,6.087-1.953c2.322,0,4.441,0.694,5.967,1.953c3.315,2.744,5.189,7.502,4.667,11.843
				c-0.598,4.995-3.774,10.566-9.521,11.746C90.578,95.587,89.678,95.688,88.857,95.688C88.857,95.688,88.857,95.688,88.857,95.688z
				"/>
			<path fill="#FFFFFF" d="M90.419,72.229c1.609,0,3.258,0.423,4.452,1.408c2.579,2.135,4.258,6.078,3.818,9.723
				c-0.436,3.639-2.709,8.688-7.637,9.699c-0.834,0.172-1.562,0.248-2.195,0.248c-3.035,0-3.924-1.735-4.07-2.976
				c-0.175-1.504,0.402-1.994,0.771-4.047c0.467-2.582,0.114-5.998-0.42-7.793c-0.475-1.588-1.02-3.383,0.736-4.877
				C86.881,72.755,88.625,72.229,90.419,72.229 M91.08,86.767c0.029,0,0.06-0.001,0.092-0.004c1.447-0.139,2.417-2.027,2.381-4.26
				c-0.03-1.8-0.873-3.658-2.088-3.658c-0.135,0-0.275,0.023-0.419,0.072c-1.077,0.363-0.33,2.357-0.307,3.844
				C90.763,84.214,89.866,86.767,91.08,86.767 M90.419,67.469c-2.973,0-5.755,0.92-7.635,2.524
				c-4.109,3.497-2.731,8.107-2.212,9.843c0.344,1.155,0.622,3.833,0.302,5.601c-0.093,0.518-0.204,0.871-0.333,1.279
				c-0.298,0.948-0.706,2.246-0.483,4.165c0.422,3.581,3.306,7.187,8.799,7.187c0.981,0,2.043-0.116,3.156-0.345
				c4.975-1.021,10.432-5.684,11.403-13.796c0.616-5.108-1.598-10.718-5.51-13.956C95.951,68.356,93.293,67.469,90.419,67.469
				L90.419,67.469z"/>
		</g>
		<g>
			<path fill="#FFFFFF" d="M105.021,94.235c-3.747,0-6.609-1.702-7.124-4.235c-0.374-1.881,0.19-3.792,1.673-5.692
				c1.341-1.708,1.396-2.59,1.381-2.82c-0.056-0.825-0.546-1.941-1.22-2.773c-1.026-1.265-2.009-2.859-1.514-5.083
				c0.5-2.226,2.811-4.986,6.703-5.798c0.628-0.132,1.258-0.199,1.87-0.199c1.924,0,3.584,0.649,4.676,1.828
				c0.886,0.957,1.319,2.201,1.218,3.503c-0.133,1.72-0.9,2.959-1.578,4.054c-0.382,0.618-0.744,1.201-0.979,1.853
				c-0.171,0.477-0.266,1.39-0.282,1.922c0.035,0.94,0.356,1.876,0.642,2.171c0.927,0.963,3.379,3.511,2.429,6.496
				c-0.971,3.032-4.295,4.57-7.159,4.751C105.509,94.228,105.263,94.235,105.021,94.235z"/>
			<path fill="#FFFFFF" d="M106.79,70.014c2.135,0,3.647,1.136,3.521,2.768c-0.151,1.961-1.658,3.162-2.423,5.281
				c-0.396,1.102-0.424,2.738-0.424,2.738c0.031,1.229,0.42,2.896,1.312,3.818c1.077,1.119,2.339,2.652,1.872,4.119
				c-0.588,1.836-2.818,2.957-5.041,3.098c-0.197,0.012-0.393,0.019-0.586,0.019c-2.48,0-4.521-0.999-4.791-2.329
				c-0.285-1.436,0.424-2.738,1.217-3.754c0.796-1.014,1.99-2.764,1.88-4.441c-0.097-1.432-0.841-2.998-1.746-4.115
				c-0.901-1.111-1.292-1.936-1.04-3.068c0.244-1.086,1.635-3.311,4.865-3.984C105.888,70.062,106.352,70.014,106.79,70.014
				 M106.79,65.254c-0.775,0-1.57,0.084-2.361,0.25c-4.944,1.031-7.849,4.56-8.532,7.6c-0.813,3.658,1.221,6.167,1.987,7.111
				c0.35,0.432,0.587,0.964,0.666,1.279c-0.075,0.19-0.286,0.625-0.847,1.339c-2.41,3.087-2.494,5.847-2.142,7.621
				c0.75,3.694,4.55,6.162,9.46,6.162c0.291,0,0.586-0.009,0.884-0.028c4.482-0.284,8.123-2.794,9.276-6.397
				c1.319-4.145-1.607-7.438-2.814-8.704c-0.057-0.16-0.121-0.441-0.139-0.709c0.018-0.395,0.085-0.928,0.146-1.122
				c0.143-0.395,0.427-0.854,0.756-1.385c0.738-1.193,1.75-2.826,1.927-5.123c0.152-1.972-0.503-3.854-1.845-5.304
				C111.666,66.174,109.384,65.254,106.79,65.254L106.79,65.254z"/>
		</g>
		<g>
			<path fill="#FFFFFF" d="M116.942,90.811c-1.429,0-2.912-0.691-4.068-1.896c-2.071-2.158-3.02-5.732-2.819-10.623
				c0.167-4.075,1.705-7.362,4.116-8.793c1.023-0.611,2.107-0.922,3.217-0.922c1.327,0,2.629,0.453,3.771,1.285
				c0.118-0.813,0.407-1.71,1.032-2.485c0.76-0.943,1.873-1.495,3.133-1.552l0.18-0.004c3.219,0,5.236,3.638,5.264,9.494
				c0.032,5.721-0.773,12.814-4.793,14.109c-0.64,0.205-1.271,0.309-1.88,0.309c-1.02,0-2.277-0.276-3.442-1.298
				c-0.122,0.272-0.271,0.528-0.445,0.764c-0.686,0.926-1.721,1.494-2.915,1.599C117.179,90.806,117.064,90.811,116.942,90.811z"/>
			<path fill="#FFFFFF" d="M125.503,68.201c1.969,0,2.867,3.691,2.884,7.125c0.02,3.48-0.414,10.953-3.143,11.832
				c-0.416,0.133-0.799,0.194-1.151,0.194c-1.676,0-2.655-1.374-3.257-2.782c-0.466-1.089-1.153-1.855-1.726-1.855
				c-0.055,0-0.109,0.007-0.162,0.021c-0.974,0.271-0.558,2.023-0.345,3.033c0.277,1.309-0.206,2.541-1.52,2.656
				c-0.044,0.004-0.092,0.006-0.142,0.006c-1.405,0-4.855-1.607-4.509-10.041c0.117-2.871,1.083-5.734,2.952-6.844
				c0.696-0.415,1.37-0.588,2.002-0.588c1.524,0,2.81,1.005,3.595,2.053c0.764,1.017,1.245,1.67,1.792,1.67
				c0.112,0,0.228-0.028,0.349-0.086c0.688-0.332,0.594-1.85,0.407-2.918c-0.217-1.273,0.018-3.389,1.901-3.475
				C125.456,68.201,125.479,68.201,125.503,68.201 M125.503,63.44c-0.094,0-0.188,0.002-0.283,0.006
				c-1.957,0.089-3.689,0.955-4.883,2.437c-0.181,0.224-0.343,0.454-0.487,0.686c-0.798-0.245-1.625-0.372-2.462-0.372
				c-1.545,0-3.039,0.424-4.441,1.261c-3.143,1.865-5.067,5.781-5.269,10.737c-0.229,5.562,0.942,9.724,3.479,12.367
				c1.604,1.67,3.712,2.628,5.786,2.628c0.193,0,0.377-0.008,0.549-0.023c1.451-0.127,2.753-0.69,3.777-1.615
				c1.147,0.465,2.182,0.559,2.825,0.559c0.856,0,1.733-0.142,2.604-0.421c4.503-1.451,5.501-6.837,5.829-8.606
				c0.582-3.14,0.627-6.491,0.62-7.786C133.105,66.556,129.171,63.44,125.503,63.44L125.503,63.44z"/>
		</g>
		<g>
			<path fill="#FFFFFF" d="M138.46,86.131c-0.792,0-1.578-0.093-2.337-0.278c-4.023-0.98-8.469-4.979-7.76-13.026
				c0.04-0.456,0.47-4.57,3.238-8.23c3.01-3.971,6.363-4.804,8.646-4.804l0.219,0.003c1.699,0.039,3.203,0.676,4.235,1.793
				c0.999,1.082,1.499,2.554,1.409,4.147c-0.088,1.572-0.869,2.72-1.831,3.56c0.88,0.354,1.696,0.933,2.417,1.722
				c2.207,2.424,2.82,7.334,0.222,10.784C144.842,84.553,141.759,86.131,138.46,86.131z"/>
			<path fill="#FFFFFF" d="M140.248,62.173c0.055,0,0.109,0,0.164,0.002c2.114,0.049,3.436,1.426,3.322,3.426
				c-0.111,1.99-2.597,2.926-3.797,3.418c-2.793,1.146-3.646,2.859-4.027,3.912c-0.557,1.539-0.412,3.074,0.449,4.082
				c0.5,0.584,1.123,0.868,1.667,0.868c0.387,0,0.733-0.144,0.964-0.427c0.447-0.543,0.249-1.412,0.023-2.025
				c-0.305-0.852-0.377-2.732,1.266-3.648c0.622-0.347,1.251-0.518,1.866-0.518c1.006,0,1.971,0.459,2.794,1.36
				c1.326,1.457,2.072,5.098,0.077,7.746c-1.738,2.305-4.205,3.383-6.557,3.383c-0.604,0-1.2-0.071-1.774-0.211
				c-2.646-0.645-6.582-3.35-5.951-10.504c0.097-1.105,0.713-4.289,2.766-7.004C135.51,63.38,137.871,62.173,140.248,62.173
				 M140.248,57.413L140.248,57.413c-3.99,0-7.733,2.04-10.542,5.744c-3.107,4.109-3.639,8.605-3.714,9.465
				c-0.842,9.547,4.627,14.341,9.567,15.543c0.944,0.23,1.92,0.346,2.901,0.346c4.053,0,7.828-1.923,10.357-5.276
				c3.418-4.538,2.476-10.705-0.357-13.817c-0.232-0.255-0.475-0.494-0.726-0.717c0.414-0.812,0.692-1.751,0.753-2.835
				c0.127-2.239-0.596-4.333-2.037-5.893c-1.473-1.595-3.579-2.504-5.929-2.558C140.431,57.414,140.34,57.413,140.248,57.413
				L140.248,57.413z"/>
		</g>
		<g>
			<path fill="#FFFFFF" d="M42.105,86.434c-0.896,0-1.705-0.131-2.226-0.241c-1.338-0.282-8.09-2.052-9.822-9.226
				c-0.935-3.881-0.27-8.001,2.033-12.598c0.666-1.325,3.115-5.638,6.72-5.638c0.871,0,1.728,0.265,2.478,0.768
				c1.467,0.98,3.546,3.359,0.967,8.266c-1.145,2.188-1.71,3.879-1.725,5.168c-0.019,1.733,0.807,1.998,1.078,2.084
				c1.717,0.547,6.285,2.003,6.092,6.66C47.603,83.978,46.082,86.434,42.105,86.434z"/>
			<path fill="#FFFFFF" d="M38.811,61.112c0.387,0,0.775,0.112,1.154,0.366c1.985,1.326,0.959,3.705,0.184,5.18
				c-1.211,2.314-1.977,4.42-1.998,6.248c-0.021,1.887,0.713,3.732,2.732,4.379c1.648,0.525,4.557,1.459,4.439,4.295
				c-0.083,1.951-1.662,2.475-3.217,2.475c-0.614,0-1.224-0.082-1.736-0.189c-1.656-0.35-6.682-2.004-7.998-7.455
				c-0.867-3.6-0.031-7.223,1.848-10.973C35.097,63.69,36.949,61.112,38.811,61.112 M38.811,56.352L38.811,56.352
				c-4.831,0-7.795,4.858-8.845,6.947c-2.568,5.125-3.294,9.777-2.223,14.226c1.603,6.636,7.065,10.032,11.643,10.998
				c0.91,0.191,1.849,0.292,2.72,0.292c4.591,0,7.795-2.827,7.973-7.033c0.171-4.14-2.24-7.109-7.168-8.837
				c0.009-0.506,0.214-1.706,1.456-4.079c0.528-1.005,1.26-2.557,1.457-4.325c0.321-2.882-0.85-5.441-3.214-7.02
				C41.469,56.756,40.154,56.352,38.811,56.352L38.811,56.352z"/>
		</g>
	</g>
	<path fill="#FFFFFF" d="M22.9,26.231c5.453-5.454,14.699-3.6,19.199-3S58.6,31.032,57.4,37.032c-1.2,6-6.301,18.6-9.9,19.199
		c-3.6,0.602-21.6-3-23.4-4.799C22.301,49.632,8.5,40.632,22.9,26.231z"/>
	<path fill="#FFFFFF" d="M126.4,20.831c5.523,0.284,12.6,3.601,17.699,6.9c5.101,3.301,13.201,9.9,9.601,15.6
		c-3.601,5.701-9.601,11.701-15,11.701s-12-4.801-13.8-7.801C123.1,44.231,114.7,20.231,126.4,20.831z"/>
	<path fill="#ED4F10" stroke="#ED4F10" stroke-width="1.2" stroke-miterlimit="10" d="M135.709,51.995
		c0,0,16.667-4.25,16.066-13.551c-0.734-11.379-25.799-20.101-63.6-20.101c-41.6,0-70,10.401-69.801,20.2
		c0.129,6.223,7.584,6.701,7.584,6.701s3.674,4.18,2.074,8.18c-1.602,4-3.574,4.621-7.174,3.82
		c-3.601-0.799-17.375-6.871-13.884-20.1c3.8-14.401,33-23.602,81.2-23.602c40.2,0,71.566,9.847,75,24.9
		c3.9,17.1-21.268,25.949-21.268,25.949s-6.475,1.031-8.875-2.168C130.633,59.024,131.358,53.595,135.709,51.995z"/>
	<g>
		<g>
			<ellipse fill="#BFEBFF" cx="88.831" cy="54.999" rx="52.722" ry="50.943"/>
		</g>
		<g>
			<defs>
				<ellipse id="SVGID_1_" cx="88.831" cy="54.999" rx="52.722" ry="50.943"/>
			</defs>
			<clipPath id="SVGID_2_">
				<use xlink:href="#SVGID_1_"  overflow="visible"/>
			</clipPath>
			<g clip-path="url(#SVGID_2_)">
				<path fill="#5EBC37" d="M57.759,10.144c2.277,0.149,4.101-0.147,4.101,2.495c0,2.642-3.105,4.544-1.684,5.418
					c0.975,0.6,1.252,1.788,0.299,2.625c-1.649,1.449-4.842,0.76-5.904,1.641c-1.064,0.88-4.405,2.2-3.188,4.255
					c1.212,2.055,0.15,6.75,1.818,7.045c1.674,0.291,2.129-2.201,2.888-3.375c0.761-1.174,0.303-2.936,1.67-4.403
					c1.366-1.466,5.12-3.425,6.642-1.812c1.518,1.612,2.646,5.27,4.1,6.801c1.9,1.998,1.689,6.729,0.021,6.875
					c-1.669,0.148-2.562-1.299-4.992-1.006c-2.43,0.293-3.035,3.082-1.52,3.521c1.52,0.439-0.305,2.055-1.819,2.055
					c-1.519,0-4.253,0.439-5.925,1.469c-1.671,1.027-2.732,2.932-3.34,4.693c-0.607,1.76-1.062,1.32-2.126,2.494
					s-1.216,2.643-0.909,3.816c0.301,1.176,0.604,3.08-0.459,3.227c-1.061,0.15-1.213-3.814-2.428-4.693
					c-1.214-0.883-2.429-1.908-3.797-0.883c-1.369,1.027,1.168,4.264,1.928,6.758c0.76,2.492,1.109,3.955,1.414,5.129
					c0.303,1.176,1.518,5.576,2.883,6.016c1.368,0.441,2.887,0.879,3.797,1.762c0.912,0.881,5.77,1.906,7.744,2.346
					c1.975,0.441,8.05,4.549,8.811,6.457c0.757,1.906,2.734,1.76,5.922,2.641c3.189,0.881,7.896,1.467,8.049,3.816
					c0.148,2.346-0.76,2.932-1.67,5.721c-0.912,2.787-1.521,3.521-3.343,4.695c-1.822,1.174-2.276,2.055-1.822,4.549
					c0.456,2.496,3.038,7.043,3.038,7.043l-3.947-0.443c0,0-7.444-7.186-8.81-9.387c-1.366-2.201-7.289-7.631-9.721-9.537
					c-2.429-1.908-6.68-6.162-6.68-9.537s1.365-4.256-0.608-6.602c-1.973-2.352-4.857-6.604-6.682-8.363
					c-1.821-1.762-5.768-5.139-6.982-13.355c-1.215-8.215,6.982-34.48,6.982-34.48l7.746-5.43L57.759,10.144z"/>
				<path fill="#5EBC37" d="M71.73,4.422c0.91-0.291,8.047,0.587,10.326,0.88c2.281,0.294,4.674-1.21,6.043,1.43
					c1.364,2.641,3.25,10.3,0.65,11.1c-3.039,0.936-4.872,0.823-5.477,2.877c-0.609,2.056-2.434,4.549-4.711,3.082
					c-2.276-1.468-3.49-3.961-2.428-7.336c1.061-3.375,3.494-7.19,0.76-7.631c-2.734-0.438-4.861,1.908-6.988,2.056
					c-2.123,0.146-3.49-5.136-3.49-5.136L71.73,4.422z"/>
				<path fill="#5EBC37" d="M67.922,11.846c1.564,0.96,4.102,3.081,3.947,5.868c-0.15,2.788-1.973,6.457-3.947,4.842
					c-1.975-1.614-0.605-2.2-1.52-4.402c-0.909-2.199-2.58-2.198-1.82-3.812C65.34,12.726,66.252,10.816,67.922,11.846z"/>
				<path fill="#5EBC37" d="M118.381,8.576c-1.041,1.438,0,6.473-1.643,6.904c-1.636,0.432-5.356-3.022-7.294-2.732
					c-1.937,0.287-4.167,2.445-4.315,4.026c-0.149,1.584-2.381,3.74-1.488,5.179c0.893,1.44,3.42,3.855,5.06,3.278
					c1.636-0.574,1.042-5.004,2.978-4.572s3.873,2.157,3.574,3.884c-0.299,1.726-2.98,2.733-5.51,3.166
					c-2.529,0.431-4.167,1.15-5.357,2.587c-1.191,1.441-3.574,3.168-2.681,4.748c0.892,1.584,1.638,3.166-0.595,3.021
					c-2.234-0.145-4.113-0.096-4.258,1.486c-0.15,1.582,1.377,2.928,3.609,2.785c2.231-0.145,4.369-1.25,6.453-2.977
					c2.084-1.725,4.468-2.445,6.847-1.295c2.385,1.152,1.194,3.166,1.938,4.029s3.126,0.143,2.383-1.295
					c-0.742-1.439-2.066-3.883,0.017-2.59c2.085,1.295,2.407,5.363,3.302,5.363c0.893,0,1.269-0.559,2.166-1.133
					c0.891-0.574,4.64-1.354,5.98-0.922c1.338,0.432,3.869,3.598,0.598,4.316c-3.28,0.719-6.256-1.006-8.488-0.43
					c-2.232,0.574-5.336,1.025-7.125-0.988c-1.174-1.322-3.92-2.332-7.09-2.309c-1.656,0.014-3.873,1.254-4.945,1.648
					c-3.125,1.152-4.132,4.109-5.771,6.266c-1.635,2.158-3.432,6.633-2.391,11.236c1.041,4.602,1.115,8.598,6.031,8.455
					c4.912-0.143,10.271-1.295,12.504,0.574c2.233,1.873,0,3.453,0.892,5.037c0.894,1.582,2.683,3.309,0.894,5.896
					c-1.785,2.59-2.383,8.777-1.785,11.51c0.596,2.732,1.638,4.17,4.913,1.295c3.276-2.879,7.446-7.338,10.126-10.07
					c2.682-2.734,3.273-4.891,4.616-8.488c1.339-3.596,1.935-4.889,3.724-7.91c1.785-3.021,2.977-5.324,1.037-6.904
					c-1.932-1.586-5.504-6.762-5.804-8.777c-0.3-2.014,1.938-4.172,2.978-0.432c1.041,3.742,1.789,9.637,3.871,7.623
					c2.084-2.012,3.424-6.762,3.871-11.074c0.446-4.316-2.531-22.012-5.359-24.887c-2.83-2.879-13.847-11.941-13.847-11.941
					L118.381,8.576z"/>
				<path fill="#5EBC37" d="M98.875,24.833c1.89-0.144,2.68,3.449,3.721,3.882c1.045,0.433,0.447,2.159-1.191,2.015
					c-1.637-0.143-2.082-1.295-3.271-3.166C96.94,25.694,96.94,24.974,98.875,24.833z"/>
				<path fill="#5EBC37" d="M95.748,27.709c1.034,0.142,2.531,1.149,1.192,2.302c-1.341,1.15-2.679,1.006-2.827-0.145
					C93.961,28.715,94.708,27.563,95.748,27.709z"/>
			</g>
		</g>
	</g>
	<path fill="#ED4F10" stroke="#ED4F10" stroke-width="1.2" stroke-miterlimit="10" d="M163.176,38.444
		c3.9,17.1-21.268,25.949-21.268,25.949s-6.475,1.031-8.875-2.168c-2.4-3.201-1.675-8.631,2.676-10.23
		c0,0,16.667-4.25,16.066-13.551"/>
	<path fill="#ED4F10" stroke="#ED4F10" stroke-width="1.2" stroke-miterlimit="10" d="M24.305,37.845
		c0.533-1.445,2.352-1.115,2.88,0.389l5.585,16.182c0.314,0.895-0.156,1.877-1.053,2.191l-15.793,5.26
		c-1.65,0.58-2.775-0.695-2.123-2.051c0.084-0.176,1.123-2.229,1.479-2.943c0.427-0.854,0.574-1.723-0.77-2.514
		c-1.848-1.086-2.775-4.33-1.104-8.299c1.6-3.799,4.627-5.172,6.729-3.25c1.891,1.729,2.729-1.26,3-1.951
		C23.568,39.759,23.885,38.983,24.305,37.845z"/>
	<path fill="#ED4F10" d="M37.693,66.683l6.76-9.838l-0.664-16.91c0,0,2.951-6.098,6.886-4.916c3.931,1.18,7.474,7.867,7.669,8.654
		c0.197,0.785,4.719,4.131,4.719,4.131l1.968,13.373l9.44,3.736l17.701-1.771l8.064-6.488l15.537-5.703l17.111,0.393l1.768,16.127
		l2.557,12.586l-15.536,1.771l-6.097,5.311l-7.867,3.342l-14.75,0.789l-15.735-1.574l-10.423-0.195l-10.227-5.311l-5.705-0.789
		l-2.557,2.361l-11.998-5.113l-2.163-6.49L37.693,66.683z"/>
	<g>
		<g>
			<path fill="#ED4F10" d="M91.138,69.273c-5.228,0-8.689-1.813-10.896-5.707c-1.392-2.457-2.851-8.824-0.802-12.767
				c0.963-1.854,2.584-2.942,4.688-3.147c0.225-0.022,0.44-0.033,0.644-0.033c3.859,0,4.243,3.588,4.472,5.732
				c0.065,0.61,0.127,1.187,0.235,1.639c0.501,2.083,1.559,2.35,2.424,2.35l0.159-0.004c0.811-0.035,1.397-0.247,1.745-0.631
				c0.417-0.462,0.597-1.264,0.532-2.383c-0.023-0.403-0.055-0.807-0.085-1.207c-0.236-3.028-0.53-6.797,3.739-7.829
				c0.421-0.102,0.842-0.154,1.251-0.154c1.484,0,2.848,0.678,3.944,1.961c2.228,2.608,3.055,7.352,2.567,10.43
				c-1.031,6.468-5.774,11.029-12.083,11.621C92.784,69.23,91.931,69.273,91.138,69.273z"/>
			<path fill="#ED4F10" d="M99.244,46.314c4.227,0,5.957,7.167,5.346,11.027c-0.835,5.236-4.576,10.025-11.027,10.631
				c-0.853,0.081-1.661,0.122-2.424,0.122c-4.802,0-7.89-1.615-9.869-5.108c-1.893-3.34-3.486-13.529,2.974-14.158
				c0.186-0.018,0.362-0.027,0.529-0.027c3.618,0,3.001,4.143,3.56,6.467c0.463,1.925,1.534,3.254,3.571,3.254
				c0.069,0,0.139-0.001,0.21-0.004c2.899-0.125,3.529-2.102,3.404-4.262c-0.195-3.418-0.988-6.916,2.753-7.82
				C98.608,46.353,98.933,46.314,99.244,46.314 M99.244,43.954c-0.502,0-1.016,0.063-1.529,0.187
				c-5.246,1.268-4.865,6.15-4.638,9.067c0.031,0.392,0.062,0.788,0.084,1.182c0.051,0.882-0.091,1.373-0.229,1.525
				c-0.093,0.103-0.384,0.221-0.92,0.244l-0.108,0.002c-0.414,0-0.929,0-1.276-1.446c-0.091-0.377-0.148-0.917-0.209-1.488
				c-0.235-2.203-0.725-6.787-5.644-6.787c-0.246,0-0.502,0.013-0.761,0.039c-2.519,0.245-4.463,1.551-5.619,3.777
				c-2.171,4.179-0.891,10.868,0.823,13.893c2.403,4.242,6.303,6.305,11.922,6.305c0.83,0,1.72-0.044,2.646-0.132
				c6.86-0.644,12.017-5.593,13.136-12.609c0.522-3.299-0.294-8.409-2.835-11.384C102.758,44.775,101.084,43.954,99.244,43.954
				L99.244,43.954z"/>
		</g>
		<g>
			<path fill="#ED4F10" d="M113.057,66.858c-1.163,0-2.276-0.5-3.219-1.445c-2.009-2.015-3.25-6.049-3.238-10.529
				c0.009-4.197,0.827-14.191,8.215-16.326c0.472-0.137,1.002-0.209,1.533-0.209c2.065,0,4.629,1.113,5.056,4.25
				c0.3,2.26,0.764,2.439,0.854,2.452c0.05-0.029,0.582-0.398,1.155-1.681c0.999-2.244,2.747-3.48,4.92-3.48
				c0.579,0,1.191,0.089,1.82,0.266c3.415,0.962,6.148,4.854,6.501,9.255c0.384,4.757,0.016,7.924-1.16,9.964
				c-1.154,1.99-2.845,3.04-4.892,3.04c-0.224,0-0.453-0.012-0.688-0.038c-2.251-0.247-3.394-2.6-3.688-4.54
				c-0.094-0.611-0.35-1.666-1.009-1.848c-0.237,0.005-0.904,0.374-1.404,0.975c-0.996,1.194-2.062,1.798-3.168,1.798
				c-0.165,0-0.331-0.014-0.497-0.043c-1.45-0.25-2.307-1.538-2.719-2.157l-0.061-0.091c-0.342-0.51-0.68-0.695-0.824-0.695
				c-0.015,0-0.045,0-0.102,0.036c-0.241,0.216-0.295,1.582,0.098,2.729l0.039,0.111c0.587,1.715,1.391,4.063,0.429,5.944
				c-0.503,0.984-1.403,1.679-2.674,2.065C113.909,66.792,113.479,66.858,113.057,66.858z"/>
			<path fill="#ED4F10" d="M116.348,39.53c1.642,0,3.562,0.843,3.887,3.229c0.254,1.912,0.719,3.297,1.854,3.461
				c0.045,0.006,0.091,0.009,0.136,0.009c0.827,0,1.662-1.027,2.266-2.376c0.727-1.631,1.975-2.782,3.843-2.782
				c0.462,0,0.962,0.07,1.502,0.222c2.897,0.816,5.329,4.295,5.644,8.213c0.316,3.916,0.163,7.252-1.006,9.281
				c-0.912,1.572-2.188,2.449-3.869,2.449c-0.182,0-0.369-0.01-0.561-0.031c-1.603-0.176-2.435-2.133-2.648-3.543
				c-0.238-1.555-0.864-2.533-1.861-2.809c-0.093-0.025-0.191-0.038-0.293-0.038c-0.743,0-1.702,0.638-2.332,1.395
				c-0.644,0.771-1.426,1.373-2.261,1.373c-0.098,0-0.196-0.008-0.295-0.025c-1.011-0.174-1.658-1.232-2.002-1.744
				c-0.504-0.751-1.16-1.217-1.804-1.217c-0.25,0-0.499,0.07-0.735,0.221c-1.068,0.674-0.766,2.996-0.385,4.107
				c0.775,2.268,1.97,5.574-1.434,6.609c-0.321,0.097-0.633,0.144-0.935,0.144c-3.187,0-5.292-5.182-5.277-10.791
				c0.013-6.186,1.717-13.564,7.362-15.195C115.502,39.588,115.916,39.53,116.348,39.53 M116.348,37.169L116.348,37.169
				c-0.65,0-1.276,0.086-1.862,0.256c-5.741,1.659-9.046,8.022-9.066,17.458c-0.013,4.78,1.36,9.135,3.583,11.364
				c1.169,1.172,2.571,1.792,4.055,1.792c0.538,0,1.083-0.083,1.62-0.246c1.98-0.602,2.933-1.778,3.383-2.658
				c1.053-2.059,0.442-4.435-0.141-6.206c0.535,0.438,1.206,0.812,2.033,0.955c0.227,0.039,0.462,0.06,0.695,0.06
				c1.013,0,2.542-0.386,4.073-2.221c0.073-0.088,0.15-0.167,0.227-0.237c0.041,0.141,0.082,0.317,0.115,0.533
				c0.356,2.35,1.808,5.212,4.724,5.532c0.277,0.03,0.551,0.045,0.818,0.045c1.737,0,4.172-0.629,5.911-3.625
				c1.304-2.264,1.721-5.648,1.317-10.656c-0.391-4.874-3.485-9.204-7.356-10.294c-0.736-0.206-1.455-0.31-2.142-0.31
				c-2.464,0-4.54,1.339-5.765,3.696C122.055,38.787,119.079,37.169,116.348,37.169L116.348,37.169z"/>
		</g>
		<g>
			<path fill="#ED4F10" d="M49.315,63.654c-0.125,0-0.251-0.004-0.378-0.013c-3.195-0.212-6.33-3.242-8.179-7.909
				c-0.848-2.14-3.103-7.824-1.881-14.961c0.588-3.447,3.556-9.377,9.319-11.587c1.872-0.718,3.641-1.082,5.259-1.082
				c2.824,0,5.284,1.102,7.309,3.276c1.721,1.847,2.486,4.476,2.1,7.213c-0.476,3.373-2.564,6.395-5.729,8.293
				c-3.189,1.911-4.92,2.669-5.954,3.122c-0.959,0.42-0.966,0.433-1.143,0.752c-0.117,0.214-0.121,0.629,0.263,1.082
				c2.27,2.677,4.469,5.798,3.567,8.654C53.262,62.413,51.475,63.654,49.315,63.654C49.315,63.654,49.316,63.654,49.315,63.654z
				 M52.984,37.929c-0.612,0-1.701,0.314-2.921,1.198c-1.306,0.944-1.61,1.944-1.607,2.299c0.261-0.055,1.01-0.279,2.692-1.516
				l0.228-0.167c0.758-0.555,2.018-1.479,1.9-1.817c0.001,0.012-0.011,0.016-0.036,0.016C53.194,37.942,53.105,37.929,52.984,37.929
				z"/>
			<path fill="#ED4F10" d="M53.455,29.282c2.877,0,4.921,1.265,6.446,2.901c3.348,3.592,2.232,10.328-3.373,13.689
				c-6.274,3.76-6.771,2.957-7.522,4.314c-0.357,0.652-0.304,1.592,0.396,2.416c1.813,2.139,4.105,5.117,3.342,7.535
				c-0.451,1.43-1.816,2.336-3.427,2.336c-0.098,0-0.198-0.003-0.298-0.01c-2.77-0.184-5.539-3.07-7.162-7.166
				c-0.939-2.369-2.961-7.631-1.815-14.328c0.469-2.746,2.979-8.537,8.578-10.684C50.453,29.582,52.053,29.282,53.455,29.282
				 M48.365,42.582c0.913,0,2.204-0.781,3.483-1.722c1.621-1.191,3.113-2.199,2.479-3.475c-0.211-0.426-0.697-0.637-1.342-0.637
				c-0.975,0-2.312,0.48-3.613,1.422c-2.089,1.51-2.511,3.529-1.723,4.178C47.845,42.51,48.087,42.582,48.365,42.582 M53.455,26.922
				c-1.763,0-3.675,0.391-5.682,1.161c-6.709,2.572-9.514,9.295-10.059,12.49c-1.276,7.463,1.066,13.371,1.948,15.595
				c2.019,5.093,5.543,8.409,9.2,8.651c0.149,0.01,0.303,0.016,0.454,0.016c2.644,0,4.926-1.603,5.678-3.987
				c1.188-3.761-1.994-7.646-3.663-9.618c0.104-0.046,0.216-0.096,0.323-0.143c1.06-0.464,2.833-1.241,6.087-3.19
				c3.473-2.083,5.766-5.414,6.292-9.141c0.437-3.092-0.44-6.074-2.405-8.183C59.369,28.15,56.62,26.922,53.455,26.922
				L53.455,26.922z"/>
		</g>
		<g>
			<path fill="#ED4F10" d="M71.702,69.246c-4.74,0-10.765-2.594-13.109-7.553c-2.014-4.25-1.906-9.821,0.291-14.9
				c1.75-4.043,3.698-6.008,5.958-6.008c0.536,0,1.085,0.116,1.634,0.344c0.813,0.34,1.441,1.014,1.817,1.951
				c0.636,1.584,0.478,3.694-0.434,5.788c-0.444,1.02-1.806,4.524-0.693,6.771c0.76,1.522,1.939,1.698,4.266,1.717
				c1.709,0.014,5.837,0.461,7.244,4.312c0.835,2.292,0.218,3.909-0.447,4.863c-1.196,1.716-3.56,2.706-6.484,2.716H71.702z"/>
			<path fill="#ED4F10" d="M64.841,41.964c0.411,0,0.806,0.098,1.18,0.253c1.514,0.633,2.021,3.273,0.755,6.178
				c-0.97,2.229-1.799,5.484-0.668,7.766c1.136,2.277,3.129,2.355,5.313,2.373c2.221,0.018,5.135,0.771,6.145,3.537
				c1.318,3.617-1.48,5.979-5.827,5.994c-0.012,0-0.025,0-0.037,0c-4.021,0-9.838-2.213-12.042-6.877
				c-1.934-4.08-1.711-9.262,0.307-13.928C61.739,43.166,63.397,41.964,64.841,41.964 M64.841,39.604L64.841,39.604
				c-4.132,0-6.321,5.058-7.041,6.719c-2.364,5.468-2.464,11.254-0.273,15.876c2.552,5.4,9.063,8.227,14.175,8.227
				c3.36-0.012,6.074-1.186,7.493-3.221c1.167-1.673,1.375-3.783,0.588-5.941c-1.152-3.155-4.271-5.057-8.343-5.089
				c-2.381-0.02-2.804-0.232-3.22-1.066c-0.578-1.167-0.296-3.434,0.72-5.771c1.038-2.381,1.201-4.822,0.447-6.698
				c-0.49-1.218-1.362-2.142-2.456-2.599C66.235,39.75,65.533,39.604,64.841,39.604L64.841,39.604z"/>
		</g>
		<g>
			<path fill="#ED4F10" d="M60.337,91.42c-2.878,0-3.311-3.203-3.495-4.571l-0.041-0.292c-0.304-2.121-0.836-2.456-1.316-2.503
				c-0.002,0-0.005,0-0.008,0c-0.338,0-0.979,0.17-2.138,1.266c-0.211,0.198-0.461,0.516-0.726,0.853
				c-0.818,1.039-1.835,2.331-3.393,2.331c-0.343,0-0.687-0.067-1.023-0.199c-2.905-1.145-2.863-4.543-1.811-10.026
				c0.615-3.186,2.801-7.081,6.297-8.605c1.092-0.476,2.253-0.728,3.358-0.728c3.33,0,5.911,2.203,7.081,6.044
				c1.309,4.289,1.811,12.106-0.346,15.093c-0.777,1.077-1.711,1.321-2.358,1.337L60.337,91.42z"/>
			<path fill="#ED4F10" d="M56.042,70.125c2.387,0,4.782,1.368,5.952,5.208c1.631,5.344,1.656,14.828-1.604,14.906
				c-0.018,0-0.036,0-0.054,0c-1.997,0-2.184-2.592-2.367-3.852c-0.217-1.51-0.673-3.34-2.368-3.508
				c-0.058-0.005-0.116-0.008-0.175-0.008c-0.904,0-1.905,0.653-2.897,1.59c-0.931,0.875-1.914,2.861-3.309,2.861
				c-0.189,0-0.386-0.037-0.591-0.117c-1.878-0.74-2.175-3.023-1.084-8.705c0.545-2.822,2.522-6.4,5.61-7.746
				C54.058,70.361,55.049,70.125,56.042,70.125 M54.684,77.182c0.289,0,0.603-0.019,0.898-0.019c0.143,0,0.282,0.004,0.413,0.018
				c0.638,0.062,1.352,0.479,1.903,0.479c0.339,0,0.617-0.158,0.777-0.653c0.35-1.072-0.859-2.047-2.205-2.092
				c-0.053-0.002-0.104-0.002-0.156-0.002c-1.647,0-2.705,0.894-2.725,1.663C53.577,77.098,54.075,77.182,54.684,77.182
				 M56.042,67.765c-1.266,0-2.59,0.286-3.83,0.827c-3.889,1.695-6.311,5.974-6.984,9.462c-0.736,3.833-1.847,9.621,2.536,11.348
				c0.476,0.187,0.965,0.281,1.457,0.281c2.13,0,3.448-1.673,4.32-2.781c0.216-0.274,0.46-0.585,0.605-0.722
				c0.565-0.534,0.94-0.771,1.145-0.875c0.091,0.201,0.226,0.61,0.342,1.418l0.039,0.284c0.187,1.383,0.754,5.593,4.664,5.593
				l0.107-0.001c1.295-0.031,2.462-0.679,3.29-1.826c1.603-2.221,2.675-9.061,0.518-16.129C62.36,68.435,57.88,67.765,56.042,67.765
				L56.042,67.765z"/>
		</g>
		<g>
			<path fill="#ED4F10" d="M68.927,93.22c-0.172,0-0.354-0.011-0.544-0.033c-0.818-0.098-1.609-0.625-2.227-1.486
				c-1.574-2.193-1.91-6.153-0.921-10.865c1.295-6.185,3.934-9.585,7.632-9.833c0.159-0.011,0.314-0.016,0.464-0.016
				c2.199,0,4.836,1.075,4.909,6.195l0.004,0.203c0.014,0.337,0.033,0.636,0.054,0.899c0.416-1.397,1.397-2.307,2.588-2.307
				l0.163,0.006c0.59,0.039,1.122,0.315,1.531,0.799c1.289,1.524,1.089,5.007,0.943,6.434c-0.275,2.736-1.368,9.132-5.554,9.394
				c-0.152,0.009-0.299,0.014-0.441,0.014c-3.296,0-4.338-2.435-4.788-3.855c-0.04,0.191-0.076,0.373-0.104,0.521
				c-0.104,0.531-0.202,1.033-0.333,1.415C71.763,92.3,70.532,93.22,68.927,93.22z"/>
			<path fill="#ED4F10" d="M73.332,72.166c3.927,0,3.699,4.368,3.733,5.263c0.044,1.047,0.183,3.762,1.14,3.781
				c0.005,0,0.011,0,0.016,0c0.679,0,0.989-1.004,1.065-1.836c0.113-1.192,0.73-2.218,1.601-2.218c0.026,0,0.053,0.001,0.08,0.003
				c1.531,0.1,1.618,3.641,1.384,5.936c-0.231,2.299-1.196,8.133-4.453,8.336c-0.126,0.008-0.25,0.012-0.368,0.012
				c-2.563,0-3.302-1.789-3.785-3.436c-0.295-1.018-0.598-1.596-1.038-1.596c-0.069,0-0.142,0.014-0.218,0.043
				c-0.783,0.305-0.963,2.883-1.301,3.865c-0.267,0.79-0.883,1.72-2.26,1.72c-0.128,0-0.262-0.008-0.404-0.025
				c-1.586-0.189-3.669-3.617-2.133-10.938c0.592-2.826,2.229-8.607,6.557-8.898C73.08,72.17,73.208,72.166,73.332,72.166
				 M73.333,69.805c-0.176,0-0.357,0.006-0.545,0.019c-2.985,0.201-6.919,2.232-8.707,10.769
				c-1.446,6.893,0.079,10.349,1.117,11.795c0.813,1.132,1.895,1.832,3.046,1.969c0.23,0.028,0.46,0.042,0.684,0.042
				c1.822,0,3.324-0.926,4.154-2.518c0.903,1.05,2.292,1.92,4.448,1.92c0.166,0,0.337-0.005,0.514-0.016
				c3.583-0.223,6.009-4.034,6.655-10.455c0.2-1.955,0.308-5.509-1.217-7.312c-0.613-0.724-1.452-1.156-2.362-1.215
				c-0.07-0.005-0.151-0.008-0.233-0.008c-0.594,0-1.15,0.146-1.648,0.413C78.813,72.805,77.456,69.805,73.333,69.805L73.333,69.805
				z"/>
		</g>
		<g>
			<path fill="#ED4F10" d="M88.857,94.487c-3.516,0-5.013-2.076-5.242-4.018c-0.135-1.162,0.097-1.898,0.342-2.679
				c0.144-0.458,0.308-0.978,0.44-1.715c0.418-2.313,0.13-5.501-0.389-7.248c-0.494-1.652-1.233-4.125,1.103-6.112
				c1.222-1.042,3.207-1.666,5.309-1.666c2.044,0,3.892,0.596,5.203,1.678c2.965,2.455,4.708,6.884,4.238,10.774
				c-0.547,4.569-3.409,9.654-8.571,10.714C90.416,94.396,89.597,94.487,88.857,94.487C88.857,94.487,88.857,94.487,88.857,94.487z
				 M91.645,80.157c0.014,0.321,0.077,0.763,0.121,1.066c0.071,0.498,0.145,1.013,0.152,1.519c0.009,0.535-0.077,1.136-0.16,1.716
				c-0.03,0.21-0.069,0.481-0.098,0.741c0.407-0.512,0.731-1.487,0.712-2.677C92.353,81.308,91.928,80.467,91.645,80.157z"/>
			<path fill="#ED4F10" d="M90.419,72.229c1.609,0,3.258,0.423,4.452,1.408c2.579,2.135,4.258,6.078,3.818,9.723
				c-0.436,3.639-2.709,8.688-7.637,9.699c-0.834,0.172-1.562,0.248-2.195,0.248c-3.035,0-3.924-1.735-4.07-2.976
				c-0.175-1.504,0.402-1.994,0.771-4.047c0.467-2.582,0.114-5.998-0.42-7.793c-0.475-1.588-1.02-3.383,0.736-4.877
				C86.881,72.755,88.625,72.229,90.419,72.229 M91.08,86.767c0.029,0,0.06-0.001,0.092-0.004c1.447-0.139,2.417-2.027,2.381-4.26
				c-0.03-1.8-0.873-3.658-2.088-3.658c-0.135,0-0.275,0.023-0.419,0.072c-1.077,0.363-0.33,2.357-0.307,3.844
				C90.763,84.214,89.866,86.767,91.08,86.767 M90.419,69.869c-2.375,0-4.646,0.729-6.077,1.95c-2.919,2.484-1.977,5.636-1.471,7.33
				c0.475,1.595,0.746,4.605,0.364,6.715c-0.12,0.666-0.265,1.126-0.405,1.572c-0.259,0.824-0.553,1.757-0.389,3.167
				c0.275,2.338,2.12,5.063,6.415,5.063c0.819,0,1.718-0.1,2.671-0.296c5.736-1.178,8.907-6.74,9.504-11.73
				c0.522-4.332-1.349-9.083-4.657-11.821C94.852,70.561,92.737,69.869,90.419,69.869L90.419,69.869z"/>
		</g>
		<g>
			<path fill="#ED4F10" d="M105.021,93.036c-3.11,0-5.556-1.347-5.947-3.274c-0.306-1.54,0.167-3.08,1.443-4.715
				c1.428-1.819,1.676-2.982,1.632-3.638c-0.072-1.071-0.655-2.426-1.485-3.45c-1.026-1.266-1.636-2.442-1.275-4.068
				c0.3-1.336,1.894-4.073,5.776-4.883c0.548-0.115,1.096-0.174,1.625-0.174c1.585,0,2.934,0.513,3.795,1.443
				c0.656,0.709,0.977,1.63,0.903,2.595c-0.11,1.428-0.767,2.489-1.402,3.514c-0.398,0.643-0.81,1.308-1.088,2.077
				c-0.269,0.746-0.346,1.956-0.354,2.358c0.025,0.946,0.343,2.319,0.98,2.978c0.864,0.897,2.881,2.994,2.148,5.297
				c-0.798,2.491-3.634,3.762-6.091,3.917C105.459,93.029,105.238,93.036,105.021,93.036z"/>
			<path fill="#ED4F10" d="M106.79,70.014c2.135,0,3.647,1.136,3.521,2.768c-0.151,1.961-1.658,3.162-2.423,5.281
				c-0.396,1.102-0.424,2.738-0.424,2.738c0.031,1.229,0.42,2.896,1.312,3.818c1.077,1.119,2.339,2.652,1.872,4.119
				c-0.588,1.836-2.818,2.957-5.041,3.098c-0.197,0.012-0.393,0.019-0.586,0.019c-2.48,0-4.521-0.999-4.791-2.329
				c-0.285-1.436,0.424-2.738,1.217-3.754c0.796-1.014,1.99-2.764,1.88-4.441c-0.097-1.432-0.841-2.998-1.746-4.115
				c-0.901-1.111-1.292-1.936-1.04-3.068c0.244-1.086,1.635-3.311,4.865-3.984C105.888,70.062,106.352,70.014,106.79,70.014
				 M106.79,67.654L106.79,67.654c-0.61,0-1.239,0.067-1.868,0.199c-3.881,0.81-6.186,3.562-6.684,5.777
				c-0.494,2.221,0.486,3.811,1.51,5.073c0.676,0.834,1.168,1.955,1.224,2.788c0.02,0.292-0.076,1.163-1.381,2.825
				c-1.483,1.9-2.046,3.806-1.675,5.671c0.514,2.533,3.369,4.229,7.106,4.229c0.241,0,0.486-0.007,0.734-0.023
				c2.858-0.181,6.174-1.714,7.141-4.733c0.948-2.978-1.499-5.519-2.419-6.476c-0.292-0.302-0.617-1.245-0.651-2.19
				c0.015-0.529,0.11-1.449,0.284-1.931c0.235-0.652,0.597-1.236,0.98-1.855c0.676-1.092,1.443-2.33,1.575-4.044
				c0.1-1.297-0.331-2.536-1.213-3.488C110.364,68.301,108.708,67.654,106.79,67.654L106.79,67.654z"/>
		</g>
		<g>
			<path fill="#ED4F10" d="M116.942,89.611c-0.522,0-1.879-0.149-3.203-1.527c-1.836-1.913-2.672-5.191-2.485-9.742
				c0.15-3.668,1.469-6.587,3.529-7.81c0.837-0.5,1.714-0.754,2.604-0.754c2.388,0,3.97,1.766,4.539,2.525
				c0.186,0.248,0.383,0.51,0.559,0.73c-0.002-0.287-0.033-0.668-0.118-1.153c-0.093-0.548-0.312-2.424,0.757-3.75
				c0.549-0.682,1.329-1.064,2.253-1.106l0.125-0.003c2.967,0,4.044,4.287,4.064,8.299c0.024,4.356-0.458,11.833-3.961,12.961
				c-0.52,0.167-1.028,0.251-1.513,0.251c-1.298,0-3.105-0.606-4.342-3.498c-0.051-0.12-0.104-0.23-0.156-0.332
				c0.047,0.277,0.103,0.538,0.136,0.695l0.027,0.128c0.236,1.117,0.048,2.195-0.516,2.958c-0.479,0.646-1.208,1.043-2.055,1.118
				C117.109,89.607,117.028,89.611,116.942,89.611z"/>
			<path fill="#ED4F10" d="M125.503,68.201c1.969,0,2.867,3.691,2.884,7.125c0.02,3.48-0.414,10.953-3.143,11.832
				c-0.416,0.133-0.799,0.194-1.151,0.194c-1.676,0-2.655-1.374-3.257-2.782c-0.466-1.089-1.153-1.855-1.726-1.855
				c-0.055,0-0.109,0.007-0.162,0.021c-0.974,0.271-0.558,2.023-0.345,3.033c0.277,1.309-0.206,2.541-1.52,2.656
				c-0.044,0.004-0.092,0.006-0.142,0.006c-1.405,0-4.855-1.607-4.509-10.041c0.117-2.871,1.083-5.734,2.952-6.844
				c0.696-0.415,1.37-0.588,2.002-0.588c1.524,0,2.809,1.005,3.595,2.053c0.764,1.017,1.245,1.67,1.792,1.67
				c0.112,0,0.228-0.028,0.349-0.086c0.688-0.332,0.594-1.85,0.407-2.918c-0.217-1.273,0.018-3.389,1.901-3.475
				C125.456,68.201,125.479,68.201,125.503,68.201 M125.503,65.84c-0.059,0-0.117,0.001-0.176,0.004
				c-1.257,0.058-2.364,0.606-3.121,1.545c-0.631,0.783-0.918,1.69-1.033,2.508c-1.144-0.841-2.453-1.3-3.785-1.3
				c-1.105,0-2.186,0.31-3.211,0.922c-2.4,1.425-3.935,4.706-4.101,8.774c-0.2,4.884,0.746,8.453,2.813,10.607
				c1.153,1.201,2.63,1.891,4.054,1.891c0.121,0,0.236-0.005,0.343-0.015c1.193-0.104,2.223-0.669,2.905-1.591
				c0.179-0.242,0.331-0.505,0.454-0.786c1.167,1.033,2.428,1.312,3.449,1.312c0.607,0,1.237-0.103,1.872-0.307
				c4.011-1.292,4.814-8.377,4.782-14.093C130.719,69.471,128.709,65.84,125.503,65.84L125.503,65.84z"/>
		</g>
		<g>
			<path fill="#ED4F10" d="M138.46,84.931c-0.696,0-1.387-0.082-2.053-0.244c-3.731-0.909-7.49-4.474-6.848-11.754
				c0.134-1.53,0.916-4.856,3-7.612c2.147-2.832,4.806-4.328,7.689-4.328l0.191,0.002c1.371,0.032,2.572,0.532,3.381,1.408
				c0.776,0.84,1.164,2,1.092,3.265c-0.149,2.658-3.011,3.825-4.387,4.385l-0.141,0.058c-2.313,0.95-3.029,2.294-3.366,3.223
				c-0.419,1.159-0.331,2.249,0.237,2.913c0.287,0.335,0.594,0.455,0.77,0.455c0.001,0.001,0.003,0.001,0.005,0.001
				c0.041,0,0.104-0.244-0.125-0.867c-0.492-1.374-0.415-3.852,1.798-5.086c0.794-0.443,1.615-0.667,2.44-0.667
				c1.355,0,2.623,0.603,3.666,1.744c1.593,1.75,2.561,6.05,0.148,9.252C144.112,83.527,141.379,84.931,138.46,84.931z"/>
			<path fill="#ED4F10" d="M140.248,62.173c0.055,0,0.109,0,0.164,0.002c2.114,0.049,3.436,1.426,3.322,3.426
				c-0.111,1.99-2.597,2.926-3.797,3.418c-2.793,1.146-3.646,2.859-4.027,3.912c-0.557,1.539-0.412,3.074,0.449,4.082
				c0.5,0.584,1.123,0.868,1.667,0.868c0.387,0,0.733-0.144,0.964-0.427c0.447-0.543,0.249-1.412,0.023-2.025
				c-0.305-0.852-0.377-2.732,1.266-3.648c0.622-0.347,1.251-0.518,1.866-0.518c1.006,0,1.971,0.459,2.794,1.36
				c1.326,1.457,2.072,5.098,0.077,7.746c-1.738,2.305-4.205,3.383-6.557,3.383c-0.604,0-1.2-0.071-1.774-0.211
				c-2.646-0.645-6.582-3.35-5.951-10.504c0.097-1.105,0.713-4.289,2.766-7.004C135.51,63.38,137.871,62.173,140.248,62.173
				 M140.248,59.813L140.248,59.813c-2.279,0-5.625,0.832-8.629,4.793c-2.766,3.658-3.196,7.768-3.236,8.224
				c-0.333,3.776,0.41,6.91,2.208,9.313c1.865,2.491,4.269,3.381,5.536,3.689c0.758,0.185,1.543,0.278,2.333,0.278
				c3.293,0,6.37-1.575,8.441-4.321c2.594-3.443,1.982-8.341-0.216-10.756c-0.729-0.797-1.554-1.38-2.444-1.732
				c0.97-0.839,1.761-1.989,1.85-3.569c0.09-1.585-0.409-3.053-1.404-4.13c-1.028-1.113-2.526-1.748-4.22-1.787
				C140.394,59.813,140.321,59.813,140.248,59.813L140.248,59.813z"/>
		</g>
		<g>
			<path fill="#ED4F10" d="M42.105,85.234c-0.792,0-1.514-0.117-1.979-0.215c-1.213-0.256-7.339-1.86-8.902-8.333
				c-0.866-3.593-0.231-7.445,1.939-11.778c0.418-0.832,2.654-4.976,5.647-4.976c0.641,0,1.25,0.19,1.811,0.565
				c2.013,1.344,2.206,3.602,0.572,6.709c-1.235,2.361-1.845,4.23-1.862,5.712c-0.013,1.195,0.308,2.728,1.912,3.241
				c1.619,0.516,5.413,1.726,5.259,5.468C46.406,83.886,44.762,85.234,42.105,85.234z"/>
			<path fill="#ED4F10" d="M38.811,61.112c0.387,0,0.775,0.112,1.154,0.366c1.985,1.326,0.959,3.705,0.184,5.18
				c-1.211,2.314-1.977,4.42-1.998,6.248c-0.021,1.887,0.713,3.732,2.732,4.379c1.648,0.525,4.557,1.459,4.439,4.295
				c-0.083,1.951-1.662,2.475-3.217,2.475c-0.614,0-1.224-0.082-1.736-0.189c-1.656-0.35-6.682-2.004-7.998-7.455
				c-0.867-3.6-0.031-7.223,1.848-10.973C35.097,63.69,36.949,61.112,38.811,61.112 M38.811,58.752L38.811,58.752
				c-3.593,0-6.037,4.305-6.7,5.625c-2.303,4.595-2.967,8.711-2.034,12.585c1.729,7.163,8.471,8.93,9.805,9.211
				c0.522,0.11,1.33,0.241,2.224,0.241c3.962,0,5.478-2.446,5.575-4.735c0.192-4.645-4.365-6.097-6.081-6.644
				c-0.272-0.087-1.108-0.355-1.089-2.104c0.015-1.29,0.581-2.985,1.729-5.18c1.102-2.096,2.445-5.959-0.964-8.236
				C40.53,59.016,39.677,58.752,38.811,58.752L38.811,58.752z"/>
		</g>
	</g>
	<g>
		<g>
			<g>
				<path fill="#FFFFFF" d="M84.836,48.235c4.203-0.412,3.502,4.01,4.088,6.441c0.477,1.988,1.604,3.342,3.777,3.25
					c2.9-0.127,3.53-2.1,3.407-4.26c-0.196-3.42-0.989-6.92,2.753-7.824c4.932-1.191,6.975,6.766,6.317,10.91
					c-0.833,5.234-4.576,10.025-11.027,10.631c-6.214,0.584-9.997-0.941-12.293-4.988C79.966,59.054,78.372,48.868,84.836,48.235z"
					/>
			</g>
			<g>
				<path fill="#FFFFFF" d="M115.734,39.103c1.723-0.5,4.68,0.053,5.09,3.066c0.254,1.912,0.719,3.299,1.855,3.461
					c0.868,0.121,1.765-0.943,2.4-2.367c0.906-2.037,2.627-3.322,5.346-2.562c2.896,0.816,5.328,4.297,5.644,8.215
					c0.316,3.916,0.165,7.25-1.007,9.279c-1.01,1.744-2.468,2.633-4.43,2.42c-1.602-0.176-2.433-2.135-2.648-3.543
					c-0.238-1.553-0.865-2.533-1.861-2.811c-0.766-0.207-1.907,0.498-2.625,1.359c-0.719,0.861-1.611,1.512-2.557,1.348
					c-1.01-0.176-1.656-1.234-2.002-1.744c-0.7-1.041-1.691-1.537-2.54-0.996c-1.067,0.674-0.765,2.994-0.384,4.107
					c0.776,2.268,1.969,5.574-1.433,6.607c-3.703,1.125-6.229-4.504-6.214-10.646C108.385,48.114,110.086,40.733,115.734,39.103z"/>
			</g>
			<g>
				<path fill="#FFFFFF" d="M60.49,31.593c-2.266-2.432-5.685-4.044-11.283-1.896c-5.599,2.146-8.106,7.938-8.575,10.684
					c-1.147,6.699,0.874,11.959,1.813,14.328c1.623,4.094,4.393,6.982,7.162,7.166c1.738,0.119,3.246-0.811,3.725-2.326
					c0.764-2.418-1.527-5.396-3.343-7.539c-0.697-0.824-0.753-1.758-0.393-2.412c0.749-1.355,1.245-0.555,7.521-4.314
					C62.723,41.921,63.84,35.187,60.49,31.593z M52.438,40.272c-1.666,1.225-3.355,2.18-4.199,1.488
					c-0.787-0.65-0.367-2.67,1.722-4.178c2.161-1.566,4.424-1.855,4.956-0.791C55.551,38.071,54.061,39.079,52.438,40.272z"/>
			</g>
			<g>
				<path fill="#FFFFFF" d="M66.611,41.628c1.513,0.631,2.021,3.271,0.756,6.18c-0.973,2.229-1.799,5.482-0.67,7.762
					c1.137,2.277,3.129,2.355,5.316,2.375c2.219,0.018,5.134,0.771,6.145,3.537c1.316,3.615-1.482,5.98-5.83,5.994
					c-4.021,0.012-9.867-2.199-12.079-6.875c-1.931-4.082-1.708-9.266,0.308-13.93C62.833,41.411,64.922,40.925,66.611,41.628z"/>
			</g>
			<g>
				<path fill="#FFFFFF" d="M62.584,74.743c-1.658-5.438-5.77-5.916-8.84-4.58c-3.087,1.346-5.064,4.922-5.609,7.75
					c-1.09,5.682-0.794,7.963,1.086,8.703c1.717,0.676,2.843-1.75,3.897-2.744c1.058-0.998,2.124-1.674,3.073-1.582
					c1.696,0.166,2.152,1.996,2.369,3.508c0.183,1.268,0.373,3.898,2.418,3.85C64.242,89.571,64.215,80.085,62.584,74.743z
					 M59.262,76.415c-0.42,1.303-1.646,0.275-2.678,0.172c-0.965-0.096-2.426,0.291-2.406-0.602
					c0.021-0.793,1.145-1.719,2.884-1.662C58.404,74.372,59.615,75.345,59.262,76.415z"/>
			</g>
			<g>
				<path fill="#FFFFFF" d="M66.98,80.489c0.593-2.826,2.23-8.609,6.557-8.9c4.326-0.293,4.084,4.326,4.117,5.252
					c0.044,1.047,0.186,3.76,1.143,3.781c0.689,0.012,1.002-1.002,1.08-1.84c0.115-1.227,0.768-2.275,1.68-2.215
					c1.532,0.102,1.619,3.643,1.385,5.938c-0.23,2.301-1.199,8.131-4.455,8.336c-2.859,0.178-3.647-1.701-4.15-3.424
					c-0.344-1.18-0.693-1.768-1.258-1.551c-0.781,0.303-0.961,2.881-1.301,3.863c-0.291,0.861-1.002,1.896-2.663,1.695
					C67.529,91.235,65.443,87.806,66.98,80.489z"/>
			</g>
			<g>
				<path fill="#FFFFFF" d="M95.461,73.046c-2.525-2.084-7.088-1.65-8.994-0.023c-1.758,1.496-1.213,3.291-0.738,4.877
					c0.533,1.797,0.887,5.213,0.42,7.797c-0.369,2.049-0.945,2.543-0.771,4.043c0.178,1.5,1.438,3.725,6.266,2.73
					c4.928-1.014,7.201-6.059,7.639-9.701C99.719,79.124,98.039,75.183,95.461,73.046z M91.761,86.173
					c-1.347,0.129-0.407-2.514-0.433-4.002c-0.021-1.488-0.771-3.479,0.307-3.844c1.436-0.488,2.476,1.586,2.508,3.588
					C94.18,84.146,93.209,86.034,91.761,86.173z"/>
			</g>
			<g>
				<path fill="#FFFFFF" d="M108.056,80.212c0.032,1.227,0.419,2.896,1.312,3.818c1.073,1.119,2.338,2.652,1.871,4.119
					c-0.588,1.836-2.816,2.955-5.04,3.098c-2.739,0.172-5.089-0.875-5.376-2.314c-0.289-1.432,0.422-2.734,1.216-3.75
					c0.796-1.014,1.989-2.764,1.878-4.441c-0.096-1.434-0.841-3-1.74-4.113c-0.905-1.113-1.297-1.936-1.045-3.07
					c0.245-1.088,1.635-3.311,4.865-3.986c2.832-0.592,5.057,0.654,4.904,2.619s-1.658,3.164-2.424,5.285
					C108.082,78.577,108.056,80.212,108.056,80.212z"/>
			</g>
			<g>
				<path fill="#FFFFFF" d="M113.023,77.798c0.115-2.871,1.082-5.73,2.953-6.842c2.373-1.416,4.484-0.018,5.598,1.463
					c0.922,1.229,1.432,1.928,2.141,1.584c0.686-0.334,0.59-1.848,0.408-2.918c-0.221-1.271,0.016-3.387,1.9-3.473
					c2.018-0.09,2.938,3.646,2.955,7.123c0.018,3.48-0.415,10.951-3.146,11.83c-2.399,0.77-3.677-0.885-4.407-2.584
					c-0.51-1.195-1.289-2.002-1.889-1.836c-0.971,0.271-0.557,2.023-0.342,3.031c0.273,1.311-0.209,2.543-1.523,2.658
					C116.375,87.944,112.664,86.53,113.023,77.798z"/>
			</g>
			<g>
				<path fill="#FFFFFF" d="M131.326,72.446c0.094-1.105,0.711-4.291,2.766-7.004s4.479-3.914,6.908-3.857
					c2.117,0.049,3.436,1.426,3.324,3.424c-0.111,1.992-2.598,2.926-3.796,3.422c-2.795,1.145-3.646,2.857-4.028,3.908
					c-0.557,1.541-0.41,3.078,0.448,4.084c0.855,1,2.075,1.123,2.631,0.441c0.448-0.543,0.249-1.41,0.024-2.025
					c-0.305-0.854-0.376-2.73,1.265-3.648c1.641-0.916,3.337-0.611,4.663,0.844c1.322,1.455,2.07,5.096,0.076,7.744
					c-2.185,2.896-5.521,3.857-8.332,3.17C134.631,82.308,130.693,79.603,131.326,72.446z"/>
			</g>
			<g>
				<path fill="#FFFFFF" d="M34.811,64.849c1.058-2.109,3.542-5.436,5.745-3.961c1.983,1.326,0.958,3.705,0.185,5.18
					c-1.213,2.314-1.977,4.42-2,6.246c-0.021,1.887,0.713,3.734,2.732,4.379c1.649,0.525,4.557,1.463,4.438,4.299
					c-0.114,2.719-3.142,2.666-4.952,2.283c-1.656-0.352-6.682-2.004-7.998-7.457C32.094,72.22,32.932,68.597,34.811,64.849z"/>
			</g>
		</g>
		<g>
			<g>
				<path fill="#DCDDDE" d="M94.151,67.384c6.451-0.605,10.194-5.396,11.027-10.631c0.12-0.758,0.149-1.643,0.088-2.576
					c-0.021,0.27-0.05,0.529-0.088,0.775c-0.833,5.234-4.576,10.025-11.027,10.631c-6.214,0.584-9.997-0.939-12.293-4.986
					c-0.771-1.359-1.49-3.852-1.64-6.373c-0.191,3.062,0.686,6.488,1.64,8.172C84.154,66.442,87.938,67.968,94.151,67.384z"/>
			</g>
			<g>
				<path fill="#DCDDDE" d="M135.062,58.194c0.926-1.604,1.209-4.029,1.133-6.906c-0.073,2.088-0.406,3.848-1.133,5.105
					c-1.01,1.744-2.1,2.734-4.062,2.539c-1.5-0.15-1.992-1.436-2.45-3.551c-0.399-1.85-1.149-2.75-2.427-2.92
					c-0.787-0.105-1.907,0.496-2.625,1.357c-0.719,0.861-1.611,1.512-2.557,1.348c-1.01-0.176-1.656-1.232-2.002-1.744
					c-0.7-1.041-1.691-1.535-2.54-0.996c-1.067,0.674-1.909,2.193-1.6,4.355c0.399,2.801,2.15,5.549-0.55,6.35
					c-3.518,1.043-5.663-3.93-5.865-9.684c-0.008,0.283-0.016,0.568-0.016,0.848c-0.015,6.143,2.511,11.771,6.214,10.646
					c3.401-1.033,2.209-4.34,1.433-6.607c-0.381-1.113-0.684-3.434,0.384-4.107c0.849-0.541,1.84-0.045,2.54,0.996
					c0.346,0.51,0.992,1.568,2.002,1.744c0.945,0.164,1.838-0.486,2.557-1.348c0.718-0.861,1.859-1.566,2.625-1.359
					c0.996,0.277,1.623,1.258,1.861,2.811c0.216,1.408,1.047,3.367,2.648,3.543C132.595,60.827,134.053,59.938,135.062,58.194z"/>
			</g>
			<g>
				<path fill="#DCDDDE" d="M49.96,37.583c2.161-1.566,4.424-1.855,4.956-0.791c0.142,0.285,0.172,0.557,0.125,0.818
					c0.352-0.658,0.416-1.4-0.041-2.277c-0.65-1.25-2.879-1.117-5.04,0.449c-2.052,1.482-3.067,4.342-2.013,5.533
					C47.646,40.435,48.229,38.833,49.96,37.583z"/>
			</g>
			<g>
				<path fill="#DCDDDE" d="M57.117,43.483C53,45.981,50.4,46.683,49.4,47.933c-0.612,0.764-0.949,2,0.199,3.5
					c0.015,0.018,0.029,0.035,0.043,0.053c-0.35-0.676-0.332-1.369-0.046-1.889c0.749-1.355,1.245-0.555,7.521-4.314
					c3.859-2.314,5.59-6.227,5.201-9.613C62.025,38.558,60.293,41.556,57.117,43.483z"/>
			</g>
			<g>
				<path fill="#DCDDDE" d="M42.445,54.708c1.623,4.094,4.393,6.982,7.162,7.166c1.738,0.119,3.246-0.811,3.725-2.326
					c0.273-0.867,0.15-1.805-0.196-2.748c0.032,0.203,0.058,0.41,0.064,0.633c0.05,1.5-1.854,2.76-3.593,2.643
					c-2.77-0.184-5.539-3.072-7.162-7.168c-0.691-1.744-1.967-5.061-2.135-9.361C40.125,48.722,41.66,52.728,42.445,54.708z"/>
			</g>
			<g>
				<path fill="#DCDDDE" d="M72.328,65.677c-4.021,0.012-9.867-2.201-12.079-6.875c-0.779-1.648-1.202-3.477-1.304-5.377
					c-0.132,2.539,0.281,5.014,1.304,7.176c2.212,4.676,8.058,6.887,12.079,6.875c4.348-0.014,7.146-2.379,5.83-5.994
					c-0.009-0.021-0.02-0.041-0.027-0.062C78.379,64.138,76.061,65.663,72.328,65.677z"/>
			</g>
			<g>
				<path fill="#DCDDDE" d="M54.178,75.985c0.021-0.793,1.145-1.719,2.884-1.662c1.172,0.043,2.243,0.789,2.262,1.689
					c0.009-0.027,0.021-0.049,0.026-0.08c0.451-1.949-0.699-2.951-2.399-3c-1.739-0.051-3.05,0.949-3,2.199
					c0.021,0.494,0.106,0.787,0.235,0.955C54.182,76.054,54.176,76.022,54.178,75.985z"/>
			</g>
			<g>
				<path fill="#DCDDDE" d="M60.979,87.849c-1.379,0.082-1.459-2.557-1.679-3.816c-0.399-2.301-1.412-3.375-3.108-3.543
					c-0.949-0.09-2.142,0.592-3.073,1.582c-0.993,1.057-2.181,3.42-3.897,2.746c-0.994-0.393-1.54-1.221-1.678-2.746
					c-0.185,2.721,0.349,4.021,1.678,4.545c1.717,0.676,2.843-1.75,3.897-2.744c1.058-0.998,2.124-1.674,3.073-1.582
					c1.696,0.166,2.152,1.996,2.369,3.508c0.183,1.268,0.373,3.898,2.418,3.85c2.062-0.047,2.81-3.855,2.669-8
					C63.53,84.995,62.728,87.743,60.979,87.849z"/>
			</g>
			<g>
				<path fill="#DCDDDE" d="M78.486,89.04c-2.859,0.18-3.369-1.676-3.836-3.408c-0.351-1.299-1.008-1.781-1.572-1.566
					c-0.781,0.303-1.537,1.725-1.828,3.666c-0.149,1-0.8,2.102-2.136,1.893c-1.104-0.17-2.456-1.881-2.644-5.396
					c-0.256,4.76,1.357,7.045,2.644,7.197c1.661,0.201,2.372-0.834,2.663-1.695c0.34-0.982,0.52-3.561,1.301-3.863
					c0.564-0.217,0.914,0.371,1.258,1.551c0.503,1.723,1.291,3.602,4.15,3.424c3.256-0.205,4.225-6.035,4.455-8.336
					c0.086-0.832,0.127-1.83,0.072-2.768c-0.016,0.336-0.041,0.664-0.072,0.969C82.711,83.005,81.742,88.837,78.486,89.04z"/>
			</g>
			<g>
				<path fill="#DCDDDE" d="M91.643,90.671c-4.828,0.992-6.192-1.238-5.992-2.84c0.014-0.105,0.023-0.205,0.031-0.303
					c-0.236,0.752-0.41,1.293-0.305,2.211c0.178,1.5,1.438,3.725,6.266,2.73c4.928-1.014,7.201-6.059,7.639-9.701
					c0.083-0.697,0.088-1.406,0.025-2.109c-0.01,0.104-0.014,0.207-0.025,0.311C98.844,84.61,96.57,89.657,91.643,90.671z"/>
			</g>
			<g>
				<path fill="#DCDDDE" d="M94.15,80.532c-0.2-2.4-1.064-4.088-2.5-3.6c-0.723,0.244-0.742,1.258-0.588,2.34
					c0.031-0.461,0.18-0.812,0.572-0.945c1.436-0.488,2.476,1.586,2.508,3.588c0.002,0.135,0,0.268-0.006,0.398
					C94.199,81.815,94.208,81.226,94.15,80.532z"/>
			</g>
			<g>
				<path fill="#DCDDDE" d="M110.9,86.231c0.35,2.002-2.479,3.072-4.702,3.215c-2.546,0.16-5.106-0.596-5.334-2.027
					c-0.118,0.482-0.147,0.99-0.042,1.514c0.287,1.439,2.637,2.486,5.376,2.314c2.224-0.143,4.452-1.262,5.04-3.098
					c0.244-0.77,0.012-1.555-0.418-2.291C110.849,85.981,110.877,86.101,110.9,86.231z"/>
			</g>
			<g>
				<path fill="#DCDDDE" d="M125.833,84.767c-2.399,0.768-3.677-0.885-4.407-2.586c-0.51-1.195-1.289-2.002-1.889-1.836
					c-0.971,0.271-1.487,1.338-1.236,3.238c0.174,1.324,0.199,2.449-0.801,2.699c-1.155,0.289-4.24-1.252-4.484-8.199
					c-0.266,8.475,3.373,9.859,4.656,9.752c1.314-0.115,1.797-1.348,1.523-2.658c-0.215-1.008-0.629-2.76,0.342-3.031
					c0.6-0.166,1.379,0.641,1.889,1.836c0.73,1.699,2.008,3.354,4.407,2.584c2.071-0.668,2.819-5.129,3.054-8.764
					C128.5,80.946,127.624,84.19,125.833,84.767z"/>
			</g>
			<g>
				<path fill="#DCDDDE" d="M140.6,67.032c-2.795,1.145-3.787,2.732-4.25,3.75c-0.679,1.494-0.695,3.064-0.1,4.129
					c-0.152-0.787-0.072-1.678,0.25-2.572c0.383-1.051,1.233-2.764,4.028-3.908c1.198-0.496,3.685-1.43,3.796-3.422
					c0.021-0.383-0.025-0.732-0.104-1.064C144.143,65.495,141.674,66.589,140.6,67.032z"/>
			</g>
			<g>
				<path fill="#DCDDDE" d="M146.779,75.149c-0.033,0.951-0.344,1.955-1.08,2.932c-2.184,2.898-5.613,3.754-8.424,3.068
					c-2.175-0.527-5.302-2.129-5.996-6.656c0.217,5.631,3.621,7.881,5.996,8.455c2.811,0.688,6.147-0.273,8.332-3.17
					C146.678,78.356,146.953,76.651,146.779,75.149z"/>
			</g>
			<g>
				<path fill="#DCDDDE" d="M40.959,81.474c-1.656-0.352-6.682-2.004-7.998-7.455c-0.16-0.662-0.26-1.324-0.309-1.988
					c-0.086,1.27,0.005,2.529,0.309,3.787c1.316,5.453,6.342,7.105,7.998,7.457c1.811,0.383,4.838,0.436,4.952-2.283
					c0.026-0.621-0.1-1.148-0.319-1.604C45.516,81.731,42.729,81.849,40.959,81.474z"/>
			</g>
		</g>
	</g>
	<g>
		<g>
			<path opacity="0.3" d="M94.6,45.882c0,0,0.863,0.473,4.576,0.275c3.299-0.176,4.074-0.65,4.074-0.65s-0.875-0.824-1.725-1.125
				c-1.414-0.5-2.574-0.201-3.975-0.1C96.15,44.382,94.949,45.433,94.6,45.882z"/>
			<path opacity="0.3" d="M107.4,44.106c0,0,2.794-0.387,6.425-3.35c2.851-2.324,3.226-3.525,3.226-3.525s-1.976-0.398-5.125,1.125
				C109.488,39.536,107.975,42.907,107.4,44.106z"/>
		</g>
		<g>
			<path fill-rule="evenodd" clip-rule="evenodd" fill="#ED4F10" d="M98.934,25.356c-0.038,0.029-0.076,0.057-0.117,0.083
				c-0.072-0.019-0.146-0.042-0.227-0.068c-0.381-1.192-1.133-2.842-2.26-4.951c-1.24-2.353-2.656-4.038-4.25-5.05
				c-1.586-1.023-2.691-1.699-3.305-2.023c-3.518-1.881-4.757-3.374-3.721-4.482c0.846-0.658,2.341-0.429,4.484,0.695
				c1.631,0.868,3.169,2.089,4.612,3.665c0.448,0.492,0.888,1.012,1.316,1.559C97.25,17.093,98.406,20.617,98.934,25.356z"/>
			<path fill-rule="evenodd" clip-rule="evenodd" fill="#ED4F10" d="M120.136,27.32c0.052-0.606,0.075-1.231,0.076-1.87
				c0.001-0.047,0.001-0.093,0-0.14c0.286-0.114,0.575-0.212,0.867-0.294c2.161-0.597,3.819-0.486,4.97,0.326
				c1.423,1.008,2.312,2.098,2.676,3.267c0.336,1.103,0.262,1.999-0.23,2.688c-0.355,0.506-0.877,0.801-1.564,0.877
				c-0.701,0.072-1.372-0.117-2.012-0.566c-0.515-0.367-1.01-1.023-1.483-1.969c-0.478-0.952-0.985-1.621-1.522-2.003
				c-0.269-0.19-0.631-0.298-1.09-0.325C120.624,27.299,120.395,27.301,120.136,27.32z"/>
			<g>
				<g>
					<path fill-rule="evenodd" clip-rule="evenodd" fill="#6C56B9" d="M99.033,25.114c1.219-0.219,2.119-0.867,2.703-1.941
						c0.227-0.424,0.451-0.992,0.669-1.706c0.134-0.409,0.329-1.059,0.589-1.948c0.526-1.695,1.224-3.023,2.086-3.985
						c1.233-1.37,3.015-2.347,5.349-2.93c1.161-0.076,2.288,0.08,3.379,0.47c1.784,0.65,3.219,1.811,4.298,3.48
						c1.621,2.5,2.422,5.461,2.408,8.885c-0.02,2.999-0.609,5.639-1.771,7.918c-0.859,1.639-2.307,3.326-4.337,5.064
						c-0.585,0.502-1.187,0.975-1.802,1.418c-1.91,1.434-4.237,2.631-6.986,3.594c-0.027,0.01-0.055,0.02-0.083,0.027
						c-0.106,0.041-0.218,0.08-0.331,0.117c-0.027,0.01-0.056,0.018-0.083,0.025l-0.142,0.047l-4.637,1.117
						c-1.389,0.23-2.783,0.369-4.182,0.416c-3.063,0.107-5.806-0.246-8.227-1.057c-2.079-0.695-3.93-1.896-5.551-3.605
						c-1.256-1.326-2.225-2.775-2.909-4.35c-0.78-1.766-1.139-3.701-1.069-5.807c0.07-2.234,0.612-4.116,1.629-5.646
						c1.293-1.942,3.554-3.27,6.781-3.984c1.469-0.327,2.826-0.37,4.073-0.129c1.265,0.242,2.384,0.772,3.357,1.594
						c1.542,1.3,2.526,2.097,2.95,2.391c0.645,0.445,1.191,0.686,1.643,0.72c0.034-0.033,0.068-0.066,0.104-0.102
						C98.973,25.177,99.002,25.146,99.033,25.114z M89.417,34.089c0.662,0.068,1.351,0.082,2.066,0.041
						c2.015-0.109,4.229-0.639,6.646-1.588c-0.012-0.086-0.028-0.188-0.05-0.305c0.01,0.023,0.019,0.049,0.029,0.078l-0.117-0.623
						c-0.084-0.715-0.297-1.424-0.643-2.119c-0.335-0.709-0.793-1.339-1.375-1.887c-0.57-0.552-1.215-0.981-1.932-1.289
						c-0.793-0.352-1.45-0.589-1.969-0.709c-1.279-0.296-2.558-0.311-3.834-0.047c-1.158,0.238-2.088,0.765-2.789,1.58
						c-0.656,0.752-1.104,1.736-1.35,2.951c-0.018,0.082-0.034,0.166-0.049,0.248c-0.008,0.016-0.014,0.031-0.014,0.047l0.009-0.02
						c-0.118,0.396-0.231,0.836-0.341,1.312C85.344,33.099,87.246,33.874,89.417,34.089z M99.58,34.048
						c0.096,0.367,0.226,0.756,0.389,1.162c0.007,0.018,0.013,0.037,0.02,0.055c0.184,0.465,0.35,0.789,0.5,0.971
						c0.026,0.039,0.055,0.072,0.086,0.1c1.147,1.283,2.396,1.652,3.75,1.104l0.08-0.027c0.021-0.016,0.049-0.027,0.077-0.037
						c0.61-0.293,1.313-0.93,2.113-1.908c0.622-0.752,1.386-1.836,2.294-3.25l0.214-0.277c-3.327,2.248-6.503,2.947-9.526,2.098
						c-0.004,0.002-0.008,0.002-0.01,0C99.568,34.038,99.574,34.042,99.58,34.048z M109.025,28.466
						c0.02,0.047,0.041,0.09,0.062,0.129c4.834-1.164,7.639-3.742,8.414-7.732c-0.049-0.086-0.096-0.17-0.146-0.252
						c-0.006-0.023-0.02-0.061-0.043-0.114c-0.012-0.011-0.017-0.022-0.021-0.033c-0.494-0.894-1.016-1.602-1.561-2.123
						c-0.328-0.307-0.676-0.558-1.036-0.752l-0.22-0.105c-0.025-0.012-0.053-0.023-0.075-0.036l-0.267-0.107
						c-0.091-0.027-0.184-0.055-0.273-0.084c-1.271-0.354-2.457-0.066-3.553,0.862c-1.133,0.946-1.854,2.235-2.16,3.867
						c-0.188,0.999-0.233,1.975-0.135,2.928c0.009,0.083,0.02,0.17,0.033,0.261l0.037,0.258c0.032,0.263,0.083,0.519,0.148,0.764
						l0.031,0.149c0.146,0.622,0.348,1.278,0.611,1.972c0.012,0.029,0.038,0.062,0.085,0.1c0.01,0.012,0.019,0.019,0.026,0.021
						C108.998,28.448,109.012,28.458,109.025,28.466z"/>
					<path fill-rule="evenodd" clip-rule="evenodd" fill="#4D3D8D" d="M99.033,25.114c0.321-0.36,0.641-0.887,0.952-1.582
						c0.503-1.082,0.884-2.357,1.149-3.826c0.236-1.316,0.914-2.547,2.031-3.691c1.092-1.121,2.452-2.007,4.084-2.658
						c1.088-0.436,2.148-0.687,3.179-0.753c-2.334,0.583-4.115,1.56-5.349,2.93c-0.862,0.962-1.56,2.29-2.086,3.985
						c-0.26,0.89-0.455,1.539-0.589,1.948c-0.218,0.714-0.442,1.282-0.669,1.706C101.152,24.247,100.252,24.896,99.033,25.114z"/>
					<path fill-rule="evenodd" clip-rule="evenodd" d="M92.229,30.073c0.042,0.121,0.076,0.248,0.101,0.379
						c0.134,0.646,0.062,1.256-0.217,1.828c-0.277,0.562-0.688,0.916-1.228,1.064c-0.536,0.148-1.04,0.045-1.507-0.309
						c-0.469-0.357-0.77-0.863-0.902-1.516c-0.135-0.65-0.068-1.262,0.202-1.832c0.288-0.559,0.7-0.912,1.233-1.06
						c0.539-0.147,1.043-0.048,1.513,0.298c0.103,0.078,0.196,0.163,0.28,0.254c-0.02,0-0.039,0.004-0.059,0.01
						c-0.146,0.039-0.258,0.125-0.332,0.258c-0.072,0.133-0.089,0.277-0.051,0.432c0.039,0.146,0.125,0.256,0.254,0.322
						c0.138,0.08,0.278,0.102,0.425,0.064C92.066,30.235,92.162,30.171,92.229,30.073z M112.463,20.794
						c-0.047,0.044-0.086,0.095-0.119,0.153c-0.09,0.171-0.112,0.361-0.072,0.569c0.037,0.201,0.123,0.365,0.262,0.492
						c0.144,0.125,0.295,0.173,0.454,0.144c0.157-0.028,0.283-0.122,0.375-0.282c0.076,0.16,0.14,0.333,0.19,0.518
						c0.176,0.637,0.181,1.235,0.014,1.796c-0.173,0.558-0.479,0.913-0.916,1.065c-0.441,0.154-0.877,0.061-1.308-0.287
						c-0.444-0.346-0.757-0.838-0.939-1.472c-0.183-0.641-0.188-1.243-0.018-1.808c0.183-0.554,0.488-0.907,0.917-1.058
						C111.688,20.491,112.073,20.547,112.463,20.794z"/>
					<path fill-rule="evenodd" clip-rule="evenodd" fill="#FFFFFF" d="M91.705,29.181c0.132-0.023,0.254-0.002,0.367,0.064
						c0.137,0.07,0.228,0.186,0.266,0.34c0.039,0.146,0.018,0.285-0.064,0.414c-0.012,0.025-0.028,0.051-0.044,0.074
						c-0.067,0.098-0.163,0.162-0.287,0.193c-0.146,0.037-0.287,0.016-0.425-0.064c-0.129-0.066-0.215-0.176-0.254-0.322
						c-0.038-0.154-0.021-0.299,0.051-0.432c0.074-0.133,0.186-0.219,0.332-0.258C91.666,29.185,91.686,29.181,91.705,29.181z
						 M89.417,34.089c-2.171-0.215-4.073-0.99-5.71-2.328c0.109-0.477,0.223-0.916,0.341-1.312l0.038-0.109
						c0.506-1.547,1.234-2.682,2.189-3.405c1.346-1.028,3.184-1.315,5.52-0.864c0.449,0.084,1.006,0.254,1.668,0.514
						c0.701,0.271,1.217,0.523,1.543,0.756c0.697,0.47,1.256,1.047,1.676,1.731c0.432,0.661,0.732,1.22,0.9,1.679
						c0.156,0.469,0.264,0.789,0.325,0.965c0.054,0.168,0.11,0.342,0.173,0.523c0.021,0.117,0.038,0.219,0.05,0.305
						c-2.417,0.949-4.632,1.479-6.646,1.588c0.567-0.227,1.03-0.639,1.389-1.238c0.441-0.758,0.58-1.598,0.421-2.514
						c-0.17-0.928-0.592-1.66-1.264-2.196c-0.682-0.547-1.424-0.745-2.225-0.6c-0.801,0.165-1.422,0.624-1.863,1.376
						c-0.449,0.77-0.594,1.611-0.435,2.529c0.161,0.93,0.578,1.664,1.255,2.199C88.975,33.854,89.193,33.989,89.417,34.089z
						 M99.58,34.048c2.605,1.094,5.38,0.713,8.32-1.143l-0.105,0.357c-2.429,1.691-5.03,2.357-7.807,2.002
						c-0.007-0.018-0.013-0.037-0.02-0.055C99.806,34.804,99.676,34.415,99.58,34.048z M117.355,20.61
						c0.051,0.082,0.098,0.166,0.146,0.252c-0.775,3.99-3.58,6.568-8.414,7.732c-0.021-0.039-0.043-0.082-0.062-0.129
						c0.014,0.009,0.027,0.014,0.035,0.016c-0.193-0.496-0.371-1.126-0.531-1.888c-0.32-1.534-0.342-2.97-0.068-4.308
						c0.166-0.837,0.422-1.581,0.77-2.232c0.346-0.665,0.771-1.211,1.281-1.638c1.01-0.851,2.1-1.115,3.266-0.792
						c0.938,0.258,1.814,0.84,2.637,1.747c0.405,0.455,0.721,0.872,0.943,1.252C117.354,20.619,117.354,20.616,117.355,20.61z
						 M113.362,21.87c-0.092,0.16-0.218,0.254-0.375,0.282c-0.159,0.029-0.311-0.019-0.454-0.144
						c-0.139-0.127-0.225-0.291-0.262-0.492c-0.04-0.208-0.018-0.398,0.072-0.569c0.033-0.059,0.072-0.109,0.119-0.153
						c0.072-0.078,0.16-0.125,0.263-0.142c0.163-0.029,0.313,0.018,0.452,0.143c0.146,0.13,0.237,0.299,0.277,0.509
						c0.037,0.2,0.008,0.386-0.088,0.553L113.362,21.87z M114.35,22.31c-0.236-0.911-0.668-1.628-1.299-2.153
						c-0.639-0.528-1.287-0.714-1.947-0.559c-0.656,0.171-1.133,0.63-1.428,1.379c-0.297,0.761-0.325,1.59-0.086,2.485
						c0.232,0.914,0.664,1.631,1.299,2.153c0.64,0.529,1.287,0.711,1.943,0.548c0.66-0.164,1.139-0.623,1.439-1.379
						C114.566,24.03,114.592,23.205,114.35,22.31z"/>
					<path fill-rule="evenodd" clip-rule="evenodd" fill="#40AA8A" d="M92.229,30.073c0.016-0.023,0.032-0.049,0.044-0.074
						c0.082-0.129,0.104-0.268,0.064-0.414c-0.038-0.154-0.129-0.27-0.266-0.34c-0.113-0.066-0.235-0.088-0.367-0.064
						c-0.084-0.091-0.178-0.176-0.28-0.254c-0.47-0.346-0.974-0.445-1.513-0.298c-0.533,0.147-0.945,0.501-1.233,1.06
						c-0.271,0.57-0.337,1.182-0.202,1.832c0.133,0.652,0.434,1.158,0.902,1.516c0.467,0.354,0.971,0.457,1.507,0.309
						c0.54-0.148,0.95-0.502,1.228-1.064c0.278-0.572,0.351-1.182,0.217-1.828C92.306,30.321,92.271,30.194,92.229,30.073z
						 M91.483,34.13c-0.716,0.041-1.404,0.027-2.066-0.041c-0.224-0.1-0.442-0.234-0.655-0.402c-0.677-0.535-1.094-1.27-1.255-2.199
						c-0.159-0.918-0.015-1.76,0.435-2.529c0.441-0.752,1.062-1.211,1.863-1.376c0.801-0.146,1.543,0.053,2.225,0.6
						c0.672,0.536,1.094,1.269,1.264,2.196c0.159,0.916,0.021,1.756-0.421,2.514C92.514,33.491,92.051,33.903,91.483,34.13z
						 M112.463,20.794c-0.39-0.247-0.775-0.303-1.16-0.169c-0.429,0.15-0.734,0.504-0.917,1.058
						c-0.171,0.564-0.165,1.167,0.018,1.808c0.183,0.634,0.495,1.126,0.939,1.472c0.431,0.348,0.866,0.441,1.308,0.287
						c0.438-0.152,0.743-0.508,0.916-1.065c0.167-0.561,0.162-1.159-0.014-1.796c-0.051-0.185-0.114-0.357-0.19-0.518l0.005-0.014
						c0.096-0.167,0.125-0.353,0.088-0.553c-0.04-0.21-0.132-0.379-0.277-0.509c-0.139-0.125-0.289-0.172-0.452-0.143
						C112.623,20.669,112.535,20.716,112.463,20.794z M114.35,22.31c0.242,0.896,0.217,1.721-0.078,2.475
						c-0.301,0.756-0.779,1.215-1.439,1.379c-0.656,0.163-1.304-0.019-1.943-0.548c-0.635-0.522-1.066-1.239-1.299-2.153
						c-0.239-0.896-0.211-1.725,0.086-2.485c0.295-0.749,0.771-1.208,1.428-1.379c0.66-0.155,1.309,0.03,1.947,0.559
						C113.682,20.682,114.113,21.398,114.35,22.31z"/>
					<path fill-rule="evenodd" clip-rule="evenodd" fill="#352B62" d="M84.048,30.448l-0.009,0.02c0-0.016,0.006-0.031,0.014-0.047
						c0.015-0.082,0.031-0.166,0.049-0.248c0.246-1.215,0.693-2.199,1.35-2.951c0.701-0.815,1.631-1.342,2.789-1.58
						c1.276-0.264,2.555-0.249,3.834,0.047c0.519,0.12,1.176,0.357,1.969,0.709c0.717,0.308,1.361,0.737,1.932,1.289
						c0.582,0.548,1.04,1.178,1.375,1.887c0.346,0.695,0.559,1.404,0.643,2.119l0.117,0.623c-0.011-0.029-0.02-0.055-0.029-0.078
						c-0.062-0.182-0.119-0.355-0.173-0.523c-0.062-0.176-0.169-0.496-0.325-0.965c-0.168-0.459-0.469-1.018-0.9-1.679
						c-0.42-0.685-0.979-1.262-1.676-1.731c-0.326-0.232-0.842-0.484-1.543-0.756c-0.662-0.26-1.219-0.43-1.668-0.514
						c-2.336-0.451-4.174-0.164-5.52,0.864c-0.955,0.724-1.684,1.858-2.189,3.405L84.048,30.448z M107.9,32.905
						c-2.94,1.855-5.715,2.236-8.32,1.143c-0.006-0.006-0.012-0.01-0.014-0.012c0.002,0.002,0.006,0.002,0.01,0
						c3.023,0.85,6.199,0.15,9.526-2.098l-0.214,0.277C108.552,32.462,108.223,32.69,107.9,32.905z M117.355,20.61
						c-0.002,0.006-0.001,0.009,0.002,0.013c-0.223-0.38-0.538-0.797-0.943-1.252c-0.822-0.907-1.699-1.489-2.637-1.747
						c-1.166-0.323-2.256-0.059-3.266,0.792c-0.51,0.427-0.936,0.973-1.281,1.638c-0.348,0.651-0.604,1.396-0.77,2.232
						c-0.273,1.338-0.252,2.773,0.068,4.308c0.16,0.762,0.338,1.392,0.531,1.888c-0.008-0.002-0.021-0.007-0.035-0.016
						c-0.014-0.008-0.027-0.018-0.041-0.029c-0.008-0.003-0.017-0.01-0.026-0.021c-0.047-0.037-0.073-0.07-0.085-0.1
						c-0.264-0.693-0.466-1.35-0.611-1.972l-0.031-0.149c-0.065-0.245-0.116-0.501-0.148-0.764l-0.037-0.258
						c-0.014-0.091-0.024-0.178-0.033-0.261c-0.099-0.953-0.053-1.929,0.135-2.928c0.307-1.632,1.027-2.921,2.16-3.867
						c1.096-0.929,2.281-1.216,3.553-0.862c0.09,0.029,0.183,0.057,0.273,0.084l0.267,0.107c0.022,0.013,0.05,0.024,0.075,0.036
						l0.22,0.105c0.36,0.194,0.708,0.445,1.036,0.752c0.545,0.521,1.066,1.229,1.561,2.123c0.005,0.011,0.01,0.022,0.021,0.033
						C117.336,20.55,117.35,20.587,117.355,20.61z"/>
					<path fill-rule="evenodd" clip-rule="evenodd" fill="#661B1E" d="M104.481,37.374c-0.073-0.102-0.157-0.203-0.247-0.307
						c-0.957-1.025-2.176-1.27-3.66-0.732c-0.031-0.027-0.06-0.061-0.086-0.1c-0.15-0.182-0.316-0.506-0.5-0.971
						c2.776,0.355,5.378-0.311,7.807-2.002l0.105-0.357c0.322-0.215,0.651-0.443,0.988-0.689c-0.908,1.414-1.672,2.498-2.294,3.25
						C105.795,36.444,105.092,37.081,104.481,37.374z"/>
					<path fill-rule="evenodd" clip-rule="evenodd" fill="#ED4F10" d="M100.574,36.335c1.484-0.537,2.703-0.293,3.66,0.732
						c0.09,0.104,0.174,0.205,0.247,0.307c-0.028,0.01-0.056,0.021-0.077,0.037l-0.08,0.027
						C102.971,37.987,101.722,37.618,100.574,36.335z"/>
				</g>
			</g>
			<path fill-rule="evenodd" clip-rule="evenodd" fill="#ED4F10" d="M83.182,41.216c0.02-0.02,0.037-0.039,0.057-0.061
				c0.548-0.619,1.072-1.277,1.57-1.975c-0.053,0.26-0.114,0.547-0.182,0.857c-0.125,0.527-0.223,0.885-0.295,1.076
				c-0.102,0.281-0.217,0.547-0.344,0.793c-0.536,1.049-1.28,1.773-2.236,2.168c-1.004,0.424-2.053,0.436-3.146,0.037
				c-0.397-0.148-0.995-0.564-1.796-1.256c-0.791-0.682-1.247-1.043-1.367-1.084c-0.125-0.047-0.58-0.156-1.367-0.33
				c-0.784-0.18-1.234-0.293-1.353-0.338c-0.542-0.197-0.985-0.469-1.336-0.816c-0.577-0.57-0.729-1.229-0.454-1.979
				c0.197-0.539,0.639-0.965,1.322-1.283c0.945-0.441,2.07-0.426,3.375,0.053c0.805,0.293,1.875,1.117,3.215,2.473
				c1.338,1.342,2.193,2.08,2.567,2.221c0.325,0.121,0.632,0.133,0.919,0.037C82.607,41.716,82.891,41.519,83.182,41.216z"/>
		</g>
	</g>
	<g>
		<text transform="matrix(1 0 0 1 148.1016 67.9126)" fill="#ED4F10" font-family="'Helvetica'" font-size="5">TM</text>
	</g>
</g>
</svg>
