<?xml version="1.0" encoding="utf-8"?>
<!-- Generator: Adobe Illustrator 20.0.0, SVG Export Plug-In . SVG Version: 6.00 Build 0)  -->
<svg version="1.1" id="Layer_1" xmlns="http://www.w3.org/2000/svg" xmlns:xlink="http://www.w3.org/1999/xlink" x="0px" y="0px"
	 viewBox="0 0 745.161 741.923" style="enable-background:new 0 0 745.161 741.923;" xml:space="preserve">
<g>
	<path d="M137.055,205.456c0,19.778-16.094,35.678-36.647,35.678h-0.97c-20.554,0-36.841-16.094-36.841-35.872V80.994
		c0-19.778,16.287-35.678,36.841-35.678h0.97c20.553,0,36.647,15.9,36.647,35.872h-16.288c0-11.246-9.307-20.166-20.747-20.166
		c-11.828,0-20.941,8.92-20.941,20.166v124.268c0,11.246,9.113,20.36,20.941,20.36c11.44,0,20.747-8.919,20.747-20.166v-4.072
		h16.288V205.456z"/>
	<path d="M209.071,167.96c0,19.778-16.482,35.678-36.841,35.678h-3.296c-20.554,0-36.841-16.094-36.841-35.872v-52.757
		c0-19.778,16.287-35.678,36.841-35.678h3.296c20.359,0,36.841,15.9,36.841,35.678V167.96z M192.396,104.649
		c0-11.246-8.92-20.166-20.747-20.166h-2.133c-11.828,0-20.941,8.92-20.941,20.166v73.864c0,11.246,9.113,20.36,20.941,20.36h2.133
		c11.828,0,20.747-8.919,20.747-20.166V104.649z"/>
	<path d="M306.722,87.256l11.38,158.567l-17.794,1.27l-67.806-138.475l2.127,10.734l12.729,178.183l-9.68,0.76l-15.78-220.927
		l11.227-0.87l67.792,138.282l-2.1-10.347l-8.343-116.017L306.722,87.256z"/>
	<path d="M437.487,81.27v15.318h-50.026v41.301h50.026v15.124h-50.026v63.988h-58.502V81.27H437.487z"/>
	<path d="M490.845,217.001h-47.949V81.27h47.949V217.001z"/>
	<path d="M688,81.27v135.731h-16.481V120.05l0.581-8.725l-23.268,47.506h-14.348l-23.268-47.312l0.581,8.531v66.145h-27.035V81.27
		h28.199l28.31,59.722h0.775l28.31-59.722H688z"/>
	<path d="M281.648,322.716c0,19.778-16.287,35.678-36.647,35.678h-35.872V238.276h35.872c20.36,0,36.647,15.9,36.647,35.678V322.716
		z M265.167,274.148c0-11.44-9.113-20.166-20.747-20.166h-19.002v89.093h19.002c11.634,0,20.747-8.726,20.747-20.166V274.148z"/>
	<path d="M490.845,238.276v15.318H387.461v41.301h103.385v15.124H387.461v48.669h103.385v15.318H328.959V238.276H490.845z"/>
	<path d="M600.374,309.936v135.731h-17.839l-71.419-175.396l1.357,10.858v92.879h-16.287V238.276h17.839l71.419,175.203
		l-1.357-10.471v-93.073H600.374z"/>
	<path d="M621.747,289.818l27.945-49.747l18.207,0.85l-38.782,69.817l-2.993,64.112l-16.851-0.787l2.993-64.111l-64.996-150.981
		l18.013,0.841L621.747,289.818z"/>
	<path d="M551.031,167.556H533.58v49.445h-37.394V81.27h58.142c17.257,0,31.024,13.38,31.024,30.249v25.789
		c0,12.41-6.593,22.687-17.645,27.534L551.031,167.556z M568.87,111.713c0-8.144-6.787-14.736-15.124-14.736H533.58v55.456h20.166
		c8.338,0,15.124-6.592,15.124-14.543V111.713z"/>
	<polygon points="490.846,61.118 490.846,34.054 483.518,34.054 483.518,44.707 483.518,53.092 480.69,53.092 480.69,23.102 
		473.363,23.102 473.363,44.707 473.363,51.509 470.535,51.509 470.535,44.707 470.535,20.154 463.208,20.154 463.208,53.867 
		460.38,53.867 460.38,44.707 460.38,28.157 453.052,28.157 453.052,67.488 450.225,67.488 450.225,61.118 450.225,51.745 
		442.897,51.745 442.897,74.765 442.897,74.765 442.897,77.362 490.846,77.362 490.846,61.118 	"/>
	<g>
		<g>
			<path d="M230.516,398.032h16.287L54.507,741.923H38.412L230.516,398.032z"/>
		</g>
		<g>
			<path d="M233.343,506.801c-1.902-14.903-16.118-27.393-32.953-25.244c-16.007,2.043-27.498,15.29-25.561,30.469
				c5.143,40.294,87.574,22.479,95.958,88.164c3.593,28.15-16.977,53.775-45.679,57.439l-4.967,0.634
				c-29.255,3.734-55.326-15.937-58.919-44.087l-0.951-7.452l23.459-2.994l0.951,7.452c2.043,16.007,16.67,27.322,33.505,25.173
				l3.035-0.387c16.835-2.149,27.945-16.189,26.113-30.539c-6.517-51.057-88.073-28.586-95.788-89.027
				c-3.664-28.702,17.012-53.499,45.99-57.198c28.979-3.699,55.015,15.697,58.714,44.675L233.343,506.801z"/>
			<path d="M567.036,495.217l25.845-1.232L539.02,616.798l4.386,91.987l-24.178,1.153l-4.386-91.987l-55.746-100.123l26.123-1.246
				l40.169,71.341L567.036,495.217z"/>
			<g>
				<path d="M451.432,373.417H285.585v328.692h23.372V500.565h142.475c24.763,0,44.516-19.198,44.516-43.681V416.82
					C495.948,392.615,476.194,373.417,451.432,373.417z M472.821,446.769c0,16.946-12.779,29.725-28.892,29.725H337.824
					c-16.113,0-28.893-12.779-28.893-29.725v-3.056c0-16.946,13.058-30.003,29.17-30.003l105.827,0
					c16.113,0,28.892,13.057,28.892,30.003V446.769z"/>
			</g>
			<path d="M410.787,440.187c0-5.087-4.034-9.121-9.385-9.121h-0.965c-5.35,0-9.472,4.035-9.472,9.121v20.044
				c0,5.087,4.122,9.209,9.472,9.209h0.965c5.35,0,9.385-4.034,9.385-9.122V440.187z"/>
		</g>
	</g>
	<g>
		<polygon points="623.645,0 618.645,0 618.645,29.146 623.645,29.168 		"/>
		<polygon points="633.226,6.039 629.69,2.504 609.08,23.113 612.6,26.664 		"/>
		<polygon points="629.69,26.665 633.225,23.129 612.616,2.519 609.065,6.039 		"/>
	</g>
	<g>
		<polygon points="195.645,35 190.645,35 190.645,64.146 195.645,64.168 		"/>
		<polygon points="205.226,41.039 201.69,37.504 181.08,58.113 184.6,61.664 		"/>
		<polygon points="201.69,61.665 205.225,58.129 184.616,37.519 181.065,41.039 		"/>
	</g>
	<g>
		<polygon points="103.581,133.716 98.581,133.716 98.581,162.862 103.581,162.884 		"/>
		<polygon points="113.161,139.755 109.625,136.219 89.016,156.829 92.535,160.38 		"/>
		<polygon points="109.625,160.38 113.161,156.845 92.551,136.235 89,139.755 		"/>
	</g>
	<g>
		<polygon points="636.581,180.716 631.581,180.716 631.581,209.862 636.581,209.884 		"/>
		<polygon points="646.161,186.755 642.625,183.219 622.016,203.829 625.535,207.38 		"/>
		<polygon points="642.625,207.38 646.161,203.845 625.551,183.235 622,186.755 		"/>
	</g>
	<g>
		<polygon points="176.581,283.716 171.581,283.716 171.581,312.862 176.581,312.884 		"/>
		<polygon points="186.161,289.755 182.625,286.219 162.016,306.829 165.535,310.38 		"/>
		<polygon points="182.625,310.38 186.161,306.845 165.551,286.235 162,289.755 		"/>
	</g>
	<g>
		<polygon points="31.581,308.716 26.581,308.716 26.581,337.862 31.581,337.884 		"/>
		<polygon points="41.161,314.755 37.625,311.219 17.016,331.829 20.535,335.38 		"/>
		<polygon points="37.625,335.38 41.161,331.845 20.551,311.235 17,314.755 		"/>
	</g>
	<g>
		<polygon points="139.581,327.716 134.581,327.716 134.581,356.862 139.581,356.884 		"/>
		<polygon points="149.161,333.755 145.625,330.219 125.016,350.829 128.535,354.38 		"/>
		<polygon points="145.625,354.38 149.161,350.845 128.551,330.235 125,333.755 		"/>
	</g>
	<g>
		<polygon points="735.581,318.716 730.581,318.716 730.581,347.862 735.581,347.884 		"/>
		<polygon points="745.161,324.755 741.625,321.219 721.016,341.829 724.535,345.38 		"/>
		<polygon points="741.625,345.38 745.161,341.845 724.551,321.235 721,324.755 		"/>
	</g>
	<g>
		<polygon points="673.581,364.716 668.581,364.716 668.581,393.862 673.581,393.884 		"/>
		<polygon points="683.161,370.755 679.625,367.219 659.016,387.829 662.535,391.38 		"/>
		<polygon points="679.625,391.38 683.161,387.845 662.551,367.235 659,370.755 		"/>
	</g>
	<g>
		<polygon points="14.581,525.716 9.581,525.716 9.581,554.862 14.581,554.884 		"/>
		<polygon points="24.161,531.755 20.625,528.219 0.016,548.829 3.535,552.38 		"/>
		<polygon points="20.625,552.38 24.161,548.845 3.551,528.235 0,531.755 		"/>
	</g>
	<g>
		<polygon points="643.581,546.716 638.581,546.716 638.581,575.862 643.581,575.884 		"/>
		<polygon points="653.161,552.755 649.625,549.219 629.016,569.829 632.535,573.38 		"/>
		<polygon points="649.625,573.38 653.161,569.845 632.551,549.235 629,552.755 		"/>
	</g>
	<g>
		<polygon points="387.581,582.716 382.581,582.716 382.581,611.862 387.581,611.884 		"/>
		<polygon points="397.161,588.755 393.625,585.219 373.016,605.829 376.535,609.38 		"/>
		<polygon points="393.625,609.38 397.161,605.845 376.551,585.235 373,588.755 		"/>
	</g>
	<g>
		<polygon points="467.581,655.716 462.581,655.716 462.581,684.862 467.581,684.884 		"/>
		<polygon points="477.161,661.755 473.625,658.219 453.016,678.829 456.535,682.38 		"/>
		<polygon points="473.625,682.38 477.161,678.845 456.551,658.235 453,661.755 		"/>
	</g>
</g>
</svg>
