<?xml version="1.0" encoding="utf-8"?>
<!-- Generator: Adobe Illustrator 20.0.0, SVG Export Plug-In . SVG Version: 6.00 Build 0)  -->
<svg version="1.1" id="Layer_1" xmlns="http://www.w3.org/2000/svg" xmlns:xlink="http://www.w3.org/1999/xlink" x="0px" y="0px"
	 viewBox="0 0 1207.056 451.168" style="enable-background:new 0 0 1207.056 451.168;" xml:space="preserve">
<g>
	<path d="M119.76,210.957c0,19.778-16.094,35.678-36.647,35.678h-0.97c-20.554,0-36.841-16.094-36.841-35.872V86.495
		c0-19.778,16.287-35.678,36.841-35.678h0.97c20.553,0,36.647,15.9,36.647,35.872h-16.288c0-11.246-9.307-20.166-20.747-20.166
		c-11.828,0-20.941,8.92-20.941,20.166v124.268c0,11.246,9.113,20.36,20.941,20.36c11.44,0,20.747-8.92,20.747-20.166v-4.072h16.288
		V210.957z"/>
	<path d="M191.776,173.461c0,19.778-16.482,35.678-36.841,35.678h-3.296c-20.554,0-36.841-16.094-36.841-35.872v-52.757
		c0-19.778,16.287-35.678,36.841-35.678h3.296c20.359,0,36.841,15.9,36.841,35.678V173.461z M175.1,110.151
		c0-11.246-8.92-20.166-20.747-20.166h-2.133c-11.828,0-20.941,8.92-20.941,20.166v73.864c0,11.246,9.113,20.36,20.941,20.36h2.133
		c11.828,0,20.747-8.919,20.747-20.166V110.151z"/>
	<path d="M289.426,92.757l11.38,158.567l-17.794,1.27L215.207,114.12l2.127,10.734l12.729,178.183l-9.68,0.76L204.602,82.87
		L215.83,82l67.792,138.282l-2.1-10.347L273.18,93.917L289.426,92.757z"/>
	<path d="M420.192,86.772v15.318h-50.026v41.301h50.026v15.124h-50.026v63.988h-58.502V86.772H420.192z"/>
	<path d="M473.55,222.503h-47.949V86.772h47.949V222.503z"/>
	<path d="M670.705,86.772v135.731h-16.481v-96.951l0.581-8.725l-23.268,47.506h-14.348L593.92,117.02l0.581,8.531v66.145h-27.035
		V86.772h28.199l28.31,59.722h0.775l28.31-59.722H670.705z"/>
	<path d="M264.353,328.218c0,19.778-16.287,35.678-36.647,35.678h-35.872V243.778h35.872c20.36,0,36.647,15.9,36.647,35.678V328.218
		z M247.871,279.65c0-11.44-9.113-20.166-20.747-20.166h-19.002v89.094h19.002c11.634,0,20.747-8.726,20.747-20.166V279.65z"/>
	<path d="M473.55,243.778v15.318H370.166v41.301H473.55v15.124H370.166v48.669H473.55v15.318H311.663V243.778H473.55z"/>
	<path d="M583.079,315.437v135.731H565.24l-71.419-175.396l1.357,10.858v92.879h-16.287V243.778h17.838l71.419,175.203
		l-1.357-10.471v-93.073H583.079z"/>
	<path d="M604.452,295.32l27.945-49.747l18.207,0.85l-38.782,69.817l-2.993,64.111l-16.851-0.787l2.993-64.111l-64.996-150.981
		l18.013,0.841L604.452,295.32z"/>
	<g>
		<path d="M803.192,75.432h16.287L627.182,419.323h-16.094L803.192,75.432z"/>
	</g>
	<path d="M806.019,184.201c-1.902-14.903-16.118-27.393-32.953-25.244c-16.007,2.043-27.498,15.29-25.561,30.469
		c5.143,40.294,87.574,22.479,95.958,88.164c3.593,28.15-16.977,53.775-45.679,57.439l-4.967,0.634
		c-29.255,3.734-55.326-15.937-58.919-44.087l-0.951-7.452l23.459-2.994l0.951,7.452c2.043,16.007,16.67,27.322,33.505,25.173
		l3.035-0.387c16.835-2.149,27.945-16.189,26.113-30.539c-6.517-51.057-88.073-28.586-95.788-89.027
		c-3.664-28.702,17.012-53.499,45.99-57.198c28.979-3.699,55.015,15.697,58.714,44.675L806.019,184.201z"/>
	<path d="M1139.711,172.617l25.845-1.232l-53.861,122.813l4.386,91.987l-24.178,1.153l-4.386-91.987l-55.746-100.123l26.123-1.246
		l40.169,71.34L1139.711,172.617z"/>
	<path d="M533.736,173.058h-17.451v49.445h-37.394V86.772h58.142c17.257,0,31.024,13.38,31.024,30.249v25.789
		c0,12.41-6.593,22.687-17.645,27.534L533.736,173.058z M551.575,117.214c0-8.144-6.787-14.736-15.124-14.736h-20.166v55.456h20.166
		c8.338,0,15.124-6.592,15.124-14.543V117.214z"/>
	<g>
		<path d="M1024.107,50.817H858.261v328.692h23.371V177.965h142.475c24.763,0,44.516-19.198,44.516-43.681V94.22
			C1068.624,70.015,1048.87,50.817,1024.107,50.817z M1045.497,124.169c0,16.946-12.779,29.725-28.892,29.725H910.5
			c-16.113,0-28.893-12.779-28.893-29.725v-3.056c0-16.946,13.058-30.003,29.17-30.003h105.827
			c16.113,0,28.892,13.057,28.892,30.003V124.169z"/>
	</g>
	<polygon points="473.551,66.619 473.551,39.556 466.223,39.556 466.223,50.208 466.223,58.594 463.395,58.594 463.395,28.604 
		456.067,28.604 456.067,50.208 456.067,57.01 453.24,57.01 453.24,50.208 453.24,25.655 445.912,25.655 445.912,59.368 
		443.085,59.368 443.085,50.208 443.085,33.659 435.757,33.659 435.757,72.989 432.93,72.989 432.93,66.619 432.93,57.247 
		425.602,57.247 425.602,80.266 425.602,80.266 425.602,82.864 473.551,82.864 473.551,66.619 	"/>
	<path d="M983.463,117.587c0-5.087-4.034-9.121-9.385-9.121h-0.965c-5.35,0-9.472,4.035-9.472,9.121v20.044
		c0,5.087,4.122,9.209,9.472,9.209h0.965c5.35,0,9.385-4.035,9.385-9.122V117.587z"/>
	<g>
		<polygon points="683.476,37.284 678.476,37.284 678.476,66.431 683.476,66.453 		"/>
		<polygon points="693.056,43.324 689.52,39.788 668.911,60.398 672.43,63.949 		"/>
		<polygon points="689.52,63.949 693.056,60.414 672.446,39.804 668.895,43.324 		"/>
	</g>
	<g>
		<polygon points="724.476,73.284 719.476,73.284 719.476,102.431 724.476,102.453 		"/>
		<polygon points="734.056,79.324 730.52,75.788 709.911,96.398 713.43,99.949 		"/>
		<polygon points="730.52,99.949 734.056,96.414 713.446,75.804 709.895,79.324 		"/>
	</g>
	<g>
		<polygon points="1197.476,58.284 1192.476,58.284 1192.476,87.431 1197.476,87.453 		"/>
		<polygon points="1207.056,64.324 1203.52,60.788 1182.911,81.398 1186.43,84.949 		"/>
		<polygon points="1203.52,84.949 1207.056,81.414 1186.446,60.804 1182.895,64.324 		"/>
	</g>
	<g>
		<polygon points="936.476,191.284 931.476,191.284 931.476,220.431 936.476,220.453 		"/>
		<polygon points="946.056,197.324 942.52,193.788 921.911,214.398 925.43,217.949 		"/>
		<polygon points="942.52,217.949 946.056,214.414 925.446,193.804 921.895,197.324 		"/>
	</g>
	<g>
		<polygon points="989.476,400.284 984.476,400.284 984.476,429.431 989.476,429.453 		"/>
		<polygon points="999.056,406.324 995.52,402.788 974.911,423.398 978.43,426.949 		"/>
		<polygon points="995.52,426.949 999.056,423.414 978.446,402.804 974.895,406.324 		"/>
	</g>
	<g>
		<polygon points="765.581,342 760.581,342 760.581,371.146 765.581,371.168 		"/>
		<polygon points="775.161,348.039 771.625,344.504 751.016,365.113 754.535,368.664 		"/>
		<polygon points="771.625,368.665 775.161,365.129 754.551,344.519 751,348.039 		"/>
	</g>
	<g>
		<polygon points="611.581,202 606.581,202 606.581,231.146 611.581,231.168 		"/>
		<polygon points="621.161,208.039 617.625,204.504 597.016,225.113 600.535,228.664 		"/>
		<polygon points="617.625,228.665 621.161,225.129 600.551,204.519 597,208.039 		"/>
	</g>
	<g>
		<polygon points="237.581,0 232.581,0 232.581,29.146 237.581,29.168 		"/>
		<polygon points="247.161,6.039 243.625,2.504 223.016,23.113 226.535,26.664 		"/>
		<polygon points="243.625,26.665 247.161,23.129 226.551,2.519 223,6.039 		"/>
	</g>
	<g>
		<polygon points="98.581,117 93.581,117 93.581,146.146 98.581,146.168 		"/>
		<polygon points="108.161,123.039 104.625,119.504 84.016,140.113 87.535,143.664 		"/>
		<polygon points="104.625,143.665 108.161,140.129 87.551,119.519 84,123.039 		"/>
	</g>
	<g>
		<polygon points="14.581,198 9.581,198 9.581,227.146 14.581,227.168 		"/>
		<polygon points="24.161,204.039 20.625,200.504 0.016,221.113 3.535,224.664 		"/>
		<polygon points="20.625,224.665 24.161,221.129 3.551,200.519 0,204.039 		"/>
	</g>
	<g>
		<polygon points="136.581,318 131.581,318 131.581,347.146 136.581,347.168 		"/>
		<polygon points="146.161,324.039 142.625,320.504 122.016,341.113 125.535,344.664 		"/>
		<polygon points="142.625,344.665 146.161,341.129 125.551,320.519 122,324.039 		"/>
	</g>
</g>
</svg>
