<?xml version="1.0" encoding="utf-8"?>
<!-- Generator: Adobe Illustrator 20.0.0, SVG Export Plug-In . SVG Version: 6.00 Build 0)  -->
<svg version="1.1" id="Layer_1" xmlns="http://www.w3.org/2000/svg" xmlns:xlink="http://www.w3.org/1999/xlink" x="0px" y="0px"
	 viewBox="0 0 921 501" style="enable-background:new 0 0 921 501;" xml:space="preserve">
<g>
	<g>
		<g>
			<polygon style="fill:#FFFFFF;" points="135.669,186.799 152.702,53.645 155.442,39.566 103.829,106.569 94.634,106.569 
				70.184,39.376 69.337,53.551 42.323,186.799 30.568,186.799 54.386,0.595 77.926,0.595 106.436,82.964 108.144,82.964 
				157.725,0.595 171.24,0.595 157.369,186.799 			"/>
			<path d="M170.702,1.095l-13.797,185.203h-20.668L153.193,53.74l2.335-12.002l0.808-4.153l-2.582,3.352l-50.172,65.132h-8.598
				L71.479,41.473l-1.65-4.535l-0.288,4.817l-0.699,11.696L41.914,186.299H31.136L54.826,1.095H77.57l28.277,81.696l0.233,0.673
				h0.712h1.069h0.565l0.292-0.484l49.29-81.885H170.702 M171.779,0.095h-14.336l-49.582,82.369h-1.069L78.282,0.095H53.946
				L30,187.299h12.732L69.836,53.581l0.703-11.767l23.745,65.255h9.79l50.472-65.522l-2.341,12.034l-17.104,133.718h22.732
				L171.779,0.095L171.779,0.095z"/>
		</g>
		<g>
			<path style="fill:#FFFFFF;" d="M316.805,214.396c-19.383,0-36.428-10.733-44.485-28.012l-39.671-85.074
				c-5.526-11.851-5.994-25.143-1.315-37.425c4.689-12.314,14.041-22.252,26.33-27.982l4.12-1.921
				c6.95-3.241,14.302-4.884,21.851-4.884c19.359,0,36.346,10.639,44.333,27.766l39.784,85.317
				c11.35,24.341,0.129,53.683-25.014,65.407l-4.12,1.921C331.664,212.752,324.325,214.396,316.805,214.396z M282.678,50.125
				c-4.396,0-8.732,0.983-12.889,2.921l-2.666,1.243c-7.248,3.38-12.742,9.167-15.47,16.295c-2.719,7.104-2.433,14.84,0.805,21.784
				l39.671,85.075c4.711,10.103,14.617,16.38,25.852,16.381c0.001,0,0.002,0,0.003,0c4.408,0,8.733-0.975,12.854-2.896l2.666-1.243
				c14.796-6.9,21.131-23.576,14.422-37.965l-39.784-85.317C303.46,56.363,293.703,50.125,282.678,50.125z"/>
			<path d="M283.639,29.598c9.178,0,18.1,2.497,25.8,7.222c7.907,4.851,14.158,11.856,18.074,20.255l39.784,85.317
				c5.456,11.701,5.886,24.868,1.211,37.076c-4.675,12.208-13.902,22.033-25.983,27.667l-4.12,1.921
				c-6.888,3.212-14.155,4.84-21.601,4.84c-9.209,0-18.168-2.532-25.91-7.322c-7.917-4.899-14.183-11.953-18.122-20.4L233.103,101.1
				c-5.469-11.728-5.931-24.881-1.301-37.036c4.643-12.192,13.903-22.032,26.074-27.707l4.12-1.921
				c6.882-3.209,14.163-4.837,21.642-4.838H283.639 M317.981,194.324c4.483,0,8.88-0.99,13.068-2.943l2.666-1.243
				c7.354-3.429,12.896-9.296,15.606-16.519c2.693-7.178,2.359-15.031-0.943-22.111l-39.784-85.317
				c-4.765-10.218-14.696-16.566-25.917-16.566c-4.469,0-8.877,0.999-13.101,2.968l-2.666,1.243
				c-7.366,3.435-12.951,9.32-15.726,16.569c-2.767,7.232-2.477,15.106,0.819,22.173l39.671,85.075
				C296.471,187.937,306.55,194.324,317.981,194.324 M283.635,28.598c-7.364,0.001-14.891,1.587-22.062,4.931l-4.12,1.921
				c-25.692,11.981-36.785,41.349-25.256,66.072l39.671,85.074c8.304,17.808,26.056,28.3,44.938,28.3
				c7.333,0,14.837-1.583,22.024-4.934l4.12-1.921c25.449-11.867,36.784-41.349,25.255-66.072L328.42,56.652
				C320.141,38.896,302.404,28.596,283.635,28.598L283.635,28.598z M317.981,193.324c-10.722,0-20.685-5.984-25.399-16.092
				l-39.671-85.075c-6.555-14.058-0.362-30.52,14.423-37.414L270,53.5c4.187-1.953,8.498-2.875,12.678-2.875
				c10.58,0,20.312,5.912,25.011,15.989l39.784,85.317c6.555,14.058,0.605,30.406-14.18,37.301l-2.666,1.243
				C326.473,192.412,322.17,193.324,317.981,193.324L317.981,193.324z"/>
		</g>
		<g>
			<polygon style="fill:#FFFFFF;" points="375.649,99.801 375.649,20.393 397.114,20.393 397.114,97.253 423.718,186.468 
				429.638,186.468 435.879,97.215 455.804,20.252 477.612,10.659 477.612,99.247 445.354,206.685 401.543,218.382 			"/>
			<path d="M477.112,11.425v87.748l-32.158,107.101l-43.034,11.49L376.149,99.747V20.893h20.465v76.288v0.146l0.042,0.14
				l26.476,88.788l0.213,0.714h0.745h5.081h0.932l0.065-0.93l6.202-88.696l19.855-76.73L477.112,11.425 M478.112,9.893l-22.732,10
				l-20,77.288l-6.209,88.788h-5.081l-26.476-88.788V19.893h-22.465v79.963L401.167,219l44.585-11.904l32.36-107.776V9.893
				L478.112,9.893z"/>
		</g>
		<g>
			<polygon style="fill:#FFFFFF;" points="478.533,186.799 478.533,0.595 568.995,0.595 568.995,20.8 510.08,30.786 499.881,78.686 
				900.637,78.686 910.307,108.528 499.998,98.533 499.998,156.605 571.136,166.605 571.136,186.799 			"/>
			<path d="M568.495,1.095v19.282l-58.164,9.859l-0.67,0.114l-0.141,0.664l-10,46.964l-0.257,1.208h1.235h399.775l9.341,28.826
				l-409.091-9.966l-1.024-0.025v1.025v57.126v0.869l0.861,0.121l70.277,9.879v19.258h-91.603V1.095H568.495 M569.495,0.095h-91.462
				v187.203h93.603v-21.128l-71.138-10V99.045l410.502,10l-10-30.86H500.498l10-46.964l58.997-10V0.095L569.495,0.095z"/>
		</g>
		<g>
			<path style="fill:#FFFFFF;" d="M590.284,432.296l-0.649-69.581l25.269-117.364h40.587l36.108,117.085l0.644,78.852l-21.732,0.178
				l-0.487-59.637l-48.686,0.48l-9.478,59.415L590.284,432.296z M637.022,295.656l-25.082,66.786l57.62-0.47l-26.773-66.364
				L637.022,295.656z"/>
			<path d="M655.121,245.85l35.977,116.663l0.639,78.279l-20.732,0.169l-0.479-58.636l-0.008-1.002l-1.002,0.01l-47.763,0.472
				l-0.845,0.008l-0.133,0.834l-9.309,58.36l-20.686-9.04l-0.646-69.201l25.173-116.916H655.121 M611.216,362.949l1.456-0.012
				l56.158-0.459l1.469-0.012l-0.549-1.362l-26.372-65.366l-0.255-0.631l-0.681,0.006l-5.081,0.041l-0.687,0.006l-0.241,0.643
				l-24.706,65.784L611.216,362.949 M655.859,244.85H614.5l-25.366,117.814l0.653,69.96l22.464,9.817l9.513-59.636l47.763-0.472
				l0.487,59.636l22.732-0.186l-0.649-79.425L655.859,244.85L655.859,244.85z M612.664,361.937l24.706-65.784l5.081-0.041
				l26.372,65.366L612.664,361.937L612.664,361.937z"/>
		</g>
		<g>
			<path style="fill:#FFFFFF;" d="M743.485,493.666l-18.835-73.672l-17.989,1.533l-24.926,57.09l-20.658-6.045l52.291-178.71
				l48.543,14.204c10.93,3.198,19.949,10.274,25.398,19.927c5.451,9.655,6.735,20.846,3.615,31.509l-9.989,34.138
				c-4.743,16.212-17.306,27.149-33.604,29.258l-0.567,0.073l19.036,70.695H743.485z M706.407,394.089l27.172,7.95
				c2.01,0.588,4.08,0.887,6.156,0.887c9.327,0,17.601-6.011,20.118-14.618l10.139-34.651c1.563-5.342,0.896-10.988-1.879-15.899
				c-2.77-4.904-7.307-8.485-12.773-10.085l-27.174-7.951L706.407,394.089z"/>
			<path d="M713.707,294.483l48.064,14.063c10.803,3.161,19.718,10.154,25.103,19.692c5.384,9.538,6.652,20.591,3.57,31.123
				l-9.989,34.138c-4.686,16.015-17.093,26.82-33.189,28.902l-1.135,0.147l0.297,1.105l18.718,69.512h-21.275l-18.634-72.885
				l-0.21-0.821l-0.844,0.072l-17.27,1.472l-0.593,0.051l-0.238,0.546l-24.63,56.414l-19.756-5.781L713.707,294.483
				 M739.736,403.425c9.548,0,18.018-6.159,20.598-14.977l10.139-34.651c1.601-5.472,0.918-11.256-1.924-16.286
				c-2.835-5.018-7.476-8.683-13.069-10.319l-26.693-7.81l-0.96-0.281l-0.281,0.96l-21.479,73.408l-0.281,0.96l0.96,0.281
				l26.693,7.81C735.494,403.12,737.613,403.425,739.736,403.425 M713.028,293.242l-52.571,179.67l21.561,6.309L707,422l17.27-1.472
				l18.826,73.638h23.356l-19.057-70.772c16.507-2.136,29.214-13.186,34.02-29.613l9.989-34.138
				c6.534-22.331-6.508-45.373-29.352-52.056L713.028,293.242L713.028,293.242z M739.736,402.425c-1.985,0-4.009-0.279-6.016-0.866
				l-26.693-7.81l21.479-73.408l26.693,7.81c11.038,3.23,17.468,14.585,14.314,25.365l-10.139,34.651
				C756.855,396.777,748.674,402.425,739.736,402.425L739.736,402.425z"/>
		</g>
		<g>
			<path style="fill:#FFFFFF;" d="M861.525,500.5c-27.596,0-50.046-21.851-50.046-48.708v-88.789
				c0-26.856,22.45-48.706,50.046-48.706h39.025L920.443,500.5H861.525z M862.327,334.958c-16.326,0-29.114,12.437-29.114,28.313
				v88.788c0,15.876,12.788,28.312,29.114,28.312h26.71V334.958H862.327z"/>
			<path d="M900.101,314.797L919.887,500h-58.362c-13.312,0-25.779-5.004-35.105-14.091c-9.312-9.073-14.44-21.19-14.44-34.117
				v-88.789c0-12.927,5.128-25.043,14.44-34.116c9.326-9.086,21.793-14.09,35.105-14.09H900.101 M862.327,480.872h26.21h1v-1
				V335.458v-1h-1h-26.21c-16.606,0-29.614,12.656-29.614,28.813v88.788C832.713,468.216,845.721,480.872,862.327,480.872
				 M901,313.797h-39.475c-28.08,0-50.545,21.929-50.545,49.207v88.789c0,27.278,22.465,49.208,50.545,49.208H921L901,313.797
				L901,313.797z M862.327,479.872c-16.046,0-28.614-12.034-28.614-27.813v-88.788c0-15.779,12.569-27.813,28.614-27.813h26.21
				v144.414H862.327L862.327,479.872z"/>
		</g>
		<g>
			<polygon style="fill:#FFFFFF;" points="145.694,394.97 135.745,208.712 226.183,198.824 226.183,228.893 157.183,228.893 
				157.183,286.893 299.816,276.885 309.553,316.672 157.183,306.682 157.183,394.97 			"/>
			<path d="M225.682,199.381v29.011h-68h-1v1v56.964v1.073l1.07-0.075l141.677-9.941l9.475,38.716l-151.157-9.911l-1.065-0.07v1.068
				v87.254h-10.515l-9.899-185.312L225.682,199.381 M226.682,198.266l-91.462,10l10,187.203h12.463v-88.254l152.518,10l-10-40.86
				l-142.518,10v-56.964h69V198.266L226.682,198.266z"/>
		</g>
		<g>
			<polygon style="fill:#FFFFFF;" points="0.688,306.716 10.364,276.856 103.312,276.856 103.312,306.716 			"/>
			<path d="M102.812,277.356v28.86H1.375l9.352-28.86H102.812 M103.812,276.356H10l-10,30.86h103.812V276.356L103.812,276.356z"/>
		</g>
		<g>
			<path style="fill:#FFFFFF;" d="M297.75,419.679c-1.534,0-3.093-0.068-4.633-0.203l-4.527-0.396
				c-13.41-1.173-25.561-7.311-34.214-17.282c-8.658-9.976-12.8-22.628-11.663-35.625l8.205-93.779
				c2.212-25.278,23.602-44.34,49.755-44.34c1.528,0,3.08,0.068,4.612,0.202l4.527,0.396c13.508,1.182,25.694,7.322,34.312,17.289
				c8.597,9.942,12.704,22.592,11.564,35.618l-8.181,93.512C345.283,400.502,323.892,419.679,297.75,419.679z M301.467,248.786
				c-15.298,0-27.35,10.846-28.657,25.791l-8.205,93.779c-0.669,7.647,1.66,15.01,6.559,20.731
				c4.932,5.761,12.027,9.316,19.979,10.012l2.929,0.256c0.92,0.081,1.852,0.121,2.768,0.121
				c15.23,0.001,27.695-11.19,28.994-26.031l8.181-93.513c0.668-7.632-1.709-14.999-6.693-20.745
				c-5.001-5.765-12.143-9.324-20.11-10.021l-2.929-0.256C303.344,248.827,302.397,248.786,301.467,248.786z"/>
			<path d="M300.673,228.554L300.673,228.554c1.514,0,3.05,0.067,4.568,0.2l4.527,0.396c13.378,1.17,25.445,7.25,33.978,17.118
				c8.508,9.839,12.572,22.357,11.444,35.248l-8.181,93.512c-1.062,12.138-6.678,23.324-15.815,31.497
				c-9.122,8.16-21,12.654-33.444,12.654c-1.52,0-3.064-0.068-4.59-0.201l-4.528-0.396c-13.28-1.162-25.312-7.239-33.88-17.111
				c-8.568-9.873-12.667-22.393-11.542-35.255l8.205-93.779c1.058-12.093,6.7-23.23,15.886-31.357
				C276.432,233.003,288.283,228.554,300.673,228.554 M296.84,399.976c15.492,0,28.171-11.388,29.492-26.488l8.181-93.513
				c0.68-7.768-1.74-15.267-6.814-21.116c-5.086-5.864-12.347-9.483-20.444-10.192l-2.929-0.256
				c-0.953-0.083-1.915-0.126-2.86-0.126c-7.483,0-14.545,2.65-19.886,7.463c-5.338,4.81-8.63,11.481-9.269,18.785l-8.205,93.779
				c-1.408,16.095,10.448,29.837,26.993,31.285l2.929,0.256C294.964,399.935,295.91,399.976,296.84,399.976 M300.672,227.554
				c-25.995,0-48.008,19.14-50.253,44.796l-8.205,93.779c-2.377,27.174,18.356,51.002,46.331,53.449l4.528,0.396
				c1.574,0.138,3.131,0.205,4.677,0.205c26.201,0,48.01-19.403,50.255-45.064l8.181-93.512
				c2.378-27.175-18.091-50.979-46.331-53.449l-4.527-0.396C303.764,227.621,302.211,227.554,300.672,227.554L300.672,227.554z
				 M296.84,398.976c-0.898,0-1.808-0.039-2.724-0.12l-2.929-0.256c-16.252-1.422-27.435-14.749-26.084-30.201l8.205-93.779
				c1.274-14.565,13.186-25.335,28.159-25.335c0.912,0,1.839,0.04,2.772,0.122l2.929,0.256c16.252,1.422,27.7,14.772,26.348,30.225
				l-8.181,93.513C324.06,387.981,311.865,398.976,296.84,398.976L296.84,398.976z"/>
		</g>
		<g>
			<g>
				<polygon style="fill:#FFFFFF;" points="511.424,404.75 502.674,323.818 500.258,323.474 479.54,404.162 434.155,404.162 
					434.203,285.609 445.359,207.209 466.856,207.209 455.975,286.891 454.466,375.779 457.72,376.242 482.838,286.303 
					518.158,298.597 528.659,386.331 531.857,386.788 555.448,301.1 557.577,286.155 579.798,286.155 576.977,305.988 
					546.617,409.757 				"/>
				<path d="M466.284,207.709l-10.804,79.114l-0.008,0.059l-0.001,0.059l-1.497,88.388l-0.015,0.883l0.874,0.124l2.383,0.339
					l0.868,0.123l0.236-0.844l24.858-89.005l34.521,12.017l10.419,87.043l0.091,0.763l0.761,0.108l2.383,0.339l0.871,0.124
					l0.234-0.849l23.473-85.263l0.017-0.061l0.009-0.063l2.056-14.453h21.21l-2.73,19.192L546.259,409.2l-34.38-4.89l-8.666-80.159
					l-0.084-0.773l-0.77-0.109l-1.588-0.226l-0.887-0.126l-0.223,0.867l-20.51,79.878h-44.497l0.047-117.982l11.09-77.971H466.284
					 M467.429,206.709h-22.504l-11.222,78.901l-0.048,119.052h46.273l20.703-80.63l1.588,0.226l8.749,80.932l36.007,5.122
					l30.496-104.253l2.902-20.404h-23.231l-2.178,15.312l-23.473,85.263l-2.383-0.339l-10.493-87.663L482.5,285.655l-25.144,90.03
					l-2.383-0.339l1.497-88.388L467.429,206.709L467.429,206.709z"/>
			</g>
		</g>
		<g>
			<polygon style="fill:#FFFFFF;" points="552.463,259.917 571.932,187.815 583.83,187.815 585.486,264.586 			"/>
			<path d="M583.34,188.315l1.633,75.693l-31.88-4.507l19.221-71.186H583.34 M584.319,187.315h-12.77l-19.716,73.018l34.165,4.83
				L584.319,187.315L584.319,187.315z"/>
		</g>
		<g>
			<g>
				<path style="fill:#FFFFFF;" d="M374.302,384.303c-11.778,0-21.361-9.222-21.361-20.558v-36.104
					c0-11.483,9.583-20.825,21.361-20.825h28.312v77.486H374.302z"/>
				<path d="M402.114,307.317v76.486h-27.812c-11.501,0-20.861-9.093-20.861-20.057v-36.104c0-11.231,9.36-20.324,20.861-20.324
					H402.114 M403.114,306.317h-1h-27.812c-12.054,0-21.861,9.566-21.861,21.324v36.104c0,11.611,9.807,21.057,21.861,21.057h27.812
					h1v-1v-76.486V306.317L403.114,306.317z"/>
			</g>
			<g>
				<path style="fill:#FFFFFF;" d="M392.692,472.358l10-68.196h-24.978l-29.125,68.137l-21.929-3.119l29.038-68.521l-0.452-0.198
					c-15.051-6.6-24.036-20.625-24.036-37.517v-35.569c0-23.113,18.576-41.219,42.29-41.219h50.579v186.203H392.692z
					 M374.302,306.816c-11.778,0-21.361,9.342-21.361,20.825v36.104c0,11.336,9.583,20.558,21.361,20.558h18.382l-10.131-77.486
					H374.302z"/>
				<path d="M423.579,286.655v185.203h-30.308l9.832-67.051l0.168-1.145h-1.157h-24.069h-0.66l-0.259,0.607L348.28,471.75
					l-20.906-2.974l28.591-67.468l0.385-0.909l-0.904-0.397c-14.863-6.519-23.737-20.373-23.737-37.06v-35.569
					c0-10.974,4.321-21.227,12.166-28.868c7.846-7.642,18.366-11.851,29.623-11.851H423.579 M374.302,384.803h17.812h1.139
					l-0.148-1.13l-10-76.486l-0.114-0.87h-0.878h-7.812c-12.054,0-21.861,9.566-21.861,21.324v36.104
					C352.441,375.356,362.248,384.803,374.302,384.803 M424.579,285.655H373.5c-23.804,0-42.789,18.452-42.789,41.719v35.569
					c0,17.116,9.092,31.29,24.335,37.975l-29.099,68.665l22.952,3.265l29.146-68.186h24.069l-10,68.196h32.465V285.655
					L424.579,285.655z M374.302,383.803c-11.501,0-20.861-9.093-20.861-20.057v-36.104c0-11.231,9.36-20.324,20.861-20.324h7.812
					l10,76.486H374.302L374.302,383.803z"/>
			</g>
		</g>
	</g>
	<g>
		<path d="M157.833,0.095v187.203h-22.732V53.581l0.802-12.034l-32.091,65.522h-19.79L51.93,41.815l0.802,11.767l-10,133.718H30
			V0.095h24.336l39.046,82.369h1.069l39.046-82.369H157.833z"/>
		<path d="M357.187,164.009c2.377,27.174-18.357,51.002-46.33,53.449l-4.529,0.396c-28.24,2.471-52.555-17.684-54.932-44.859
			l-8.181-93.512c-2.378-27.175,18.091-50.979,46.331-53.449l4.529-0.396c27.973-2.447,52.53,17.417,54.908,44.592L357.187,164.009z
			 M326.094,72.501c-1.352-15.452-14.679-26.635-30.931-25.213l-2.93,0.256c-16.252,1.422-27.701,14.772-26.349,30.225l8.181,93.513
			c1.352,15.451,14.969,26.878,31.221,25.456l2.93-0.256c16.252-1.422,27.434-14.749,26.082-30.201L326.094,72.501z"/>
		<path d="M397.614,97.181l26.476,88.788h5.081l26.209-88.788V19.893l22.732,10V99.32l-32.36,107.776H407.51l-32.36-107.241V19.893
			h22.465V97.181z"/>
		<path d="M569.495,0.095v21.127h-68.997v56.964H901l-10,30.86l-390.502-10v67.126l71.138,10v11.128h-93.603V0.095H569.495z"/>
		<path d="M658.859,254.85l33.238,107.508l0.649,79.425l-22.732,0.186l-0.487-59.636l-57.763,0.472l0.487,59.636l-22.464-9.817
			l-0.653-69.96l31.482-107.501L658.859,254.85z M642.451,276.112l-5.081,0.042l-24.706,85.784l56.158-0.459L642.451,276.112z"/>
		<path d="M724.27,420.528l-23.101-6.759l-19.151,65.452l-21.561-6.309l52.571-179.67l49.024,14.344
			c22.844,6.684,35.886,29.725,29.352,52.056l-9.989,34.138c-4.807,16.427-17.513,27.478-34.02,29.613l9.057,70.772h-13.356
			L724.27,420.528z M769.513,353.516c3.154-10.779-3.276-22.135-14.314-25.365l-26.693-7.81l-21.479,73.408l26.693,7.81
			c11.038,3.23,22.575-2.869,25.654-13.392L769.513,353.516z"/>
		<path d="M800.98,363.003c0-27.278,22.465-49.207,50.545-49.207H901V501h-49.475c-28.08,0-50.545-21.93-50.545-49.208V363.003z
			 M823.713,452.059c0,15.78,12.569,27.813,28.614,27.813h26.21V335.458h-26.21c-16.045,0-28.614,12.035-28.614,27.813V452.059z"/>
		<path d="M226.682,208.266v21.127h-69v56.964l142.518-10v30.86H157.683v88.254H145.22l-10-187.203H226.682z"/>
		<path d="M10,276.356l93.812,10v20.86H0L10,276.356z"/>
		<path d="M251.419,262.35c2.378-27.175,26.933-47.04,54.909-44.592l4.527,0.396c28.24,2.471,48.709,26.274,46.331,53.449
			l-8.181,93.512c-2.378,27.175-26.692,47.33-54.932,44.859l-4.527-0.396c-27.976-2.448-48.709-26.275-46.331-53.449L251.419,262.35
			z M266.103,358.399c-1.352,15.452,9.832,28.78,26.084,30.201l2.929,0.256c16.252,1.422,29.868-10.005,31.22-25.456l8.181-93.513
			c1.352-15.452-10.097-28.803-26.348-30.225l-2.929-0.256c-16.252-1.422-29.58,9.761-30.932,25.213L266.103,358.399z"/>
		<g>
			<polygon points="557.143,285.655 554.965,300.967 531.492,386.23 529.11,385.891 518.617,298.228 492.142,294.462 
				457.356,375.685 454.973,375.346 456.471,286.958 467.429,206.709 444.925,206.709 433.703,285.609 433.655,404.662 
				469.928,404.662 500.631,324.032 502.219,324.258 510.968,405.19 546.976,410.312 577.472,306.059 580.374,285.655 			"/>
		</g>
		<polygon points="584.319,187.315 571.549,187.315 562.768,255.163 585.999,255.163 		"/>
		<g>
			<path style="fill:none;" d="M353.441,327.641v36.104c0,10.964,9.36,20.057,20.861,20.057h27.812v-76.486h-27.812
				C362.801,307.317,353.441,316.41,353.441,327.641z"/>
			<path d="M373.5,285.655c-23.804,0-42.789,18.452-42.789,41.719v35.569c0,17.116,9.092,31.29,24.335,37.975l-29.099,68.665
				l22.952,3.265l29.146-68.186h24.069v68.196h22.465V285.655H373.5z M402.114,383.803h-27.812
				c-11.501,0-20.861-9.093-20.861-20.057v-36.104c0-11.231,9.36-20.324,20.861-20.324h27.812V383.803z"/>
		</g>
	</g>
</g>
</svg>
